<?xml version="1.0" standalone="no"?>
<!DOCTYPE svg PUBLIC "-//W3C//DTD SVG 1.1//EN" "http://www.w3.org/Graphics/SVG/1.1/DTD/svg11.dtd" >
<svg xmlns="http://www.w3.org/2000/svg">
<metadata></metadata>
<defs>
<font id="cochinitalic" horiz-adv-x="909" >
<font-face units-per-em="2048" ascent="1638" descent="-410" />
<missing-glyph horiz-adv-x="454" />
<glyph horiz-adv-x="0" />
<glyph horiz-adv-x="0" />
<glyph unicode="&#xa;" horiz-adv-x="1024" />
<glyph unicode="&#xd;" horiz-adv-x="1024" />
<glyph unicode=" "  horiz-adv-x="454" />
<glyph unicode="&#x09;" horiz-adv-x="454" />
<glyph unicode="&#xa0;" horiz-adv-x="454" />
<glyph unicode="!" horiz-adv-x="681" d="M123 106q0 59 34 103.5t91 44.5q43 0 69.5 -28.5t26.5 -78.5q0 -59 -34 -103t-91 -44q-43 0 -69.5 28.5t-26.5 77.5zM266 313q6 133 44 258t83 250t85 251t52 259h177q-6 -94 -37 -181t-74 -169t-91 -161t-92 -160.5t-79 -166.5t-47 -180h-21z" />
<glyph unicode="&#x22;" horiz-adv-x="681" d="M271 1253q-1 29 4.5 55.5t19.5 45t43 18.5t43 -18.5t19.5 -45t4 -55t-3.5 -47.5l-32 -418q0 -6 -1 -16t-4.5 -21.5t-8.5 -18.5t-17 -7t-17.5 7t-8.5 18.5t-4 21.5t-1 16l-33 418q-2 18 -3 47zM531.5 1253q-1.5 29 4 55.5t19.5 45t43 18.5t43 -18.5t19.5 -45t4.5 -55 t-3 -47.5l-33 -418q0 -6 -1 -16t-4 -21.5t-8.5 -18.5t-17.5 -7t-17.5 7t-8.5 18.5t-4 21.5t-1 16l-32 418q-2 18 -3.5 47z" />
<glyph unicode="#" d="M10 432l13 84h208l41 299h-209l13 84h209l59 432h96l-61 -432h268l62 432h94l-62 -432h213l-12 -84h-211l-43 -299h213l-12 -84h-211l-62 -432h-94l60 432h-269l-59 -432h-96l61 432h-209zM326 516h268l41 299h-268z" />
<glyph unicode="$" d="M0 78l82 383h20q0 -53 2 -114.5t17.5 -119t47.5 -104.5t91 -72l201 592q-29 37 -59.5 78t-57.5 87t-43 96t-16 102q0 80 36.5 140t95 102t130 62.5t143.5 20.5l64 189h57l-63 -193q47 -14 96 -29.5t94 -44.5q-25 -70 -42 -141.5t-32 -142.5h-20q0 45 -2 91t-12.5 88 t-33 78t-65.5 56l-174 -516q33 -43 66.5 -90t61.5 -98.5t46.5 -107.5t18.5 -118q0 -74 -33 -139.5t-87.5 -114.5t-122 -77.5t-136.5 -28.5q-23 0 -40.5 1t-31.5 1l-59 -180h-60l64 190q-53 14 -117 35.5t-127 38.5zM311 33q14 -8 31.5 -9t36.5 -1q55 0 99 27.5t74 70.5 t46 95t16 101q0 80 -35.5 151t-76.5 128zM420 1061q0 -72 30.5 -135.5t65.5 -114.5l162 481q-51 0 -98.5 -15t-83 -45t-56 -73t-20.5 -98z" />
<glyph unicode="%" horiz-adv-x="1705" d="M176 717q0 61 19.5 129.5t54.5 137.5t84 131.5t106.5 110.5t122.5 76.5t135 28.5q92 0 129 -51t37 -129q0 -61 -19.5 -130t-54 -137.5t-84 -131t-106.5 -110.5t-122.5 -76.5t-135.5 -28.5q-92 0 -129 51t-37 129zM303 729q0 -25 3 -51.5t14.5 -49t30 -36.5t48.5 -14 q51 0 95.5 30.5t82 79.5t67.5 110.5t50.5 123t31.5 119t11 96.5q0 25 -3 51t-14 49t-29.5 38t-49.5 15q-51 0 -95 -30.5t-82 -80t-67.5 -110.5t-50 -123.5t-32 -120t-11.5 -96.5zM356 -20l981 1351h84l-979 -1351h-86zM920 160q0 61 19 129.5t54 137.5t84 131.5t106.5 110.5 t123 76.5t135.5 28.5q92 0 129 -51t37 -129q0 -61 -19.5 -130t-54.5 -137.5t-84 -131t-106.5 -110.5t-123 -76.5t-135.5 -28.5q-92 0 -128.5 51t-36.5 129zM1047 172q0 -25 3 -51.5t14 -49t29.5 -37t49.5 -14.5q51 0 95 31t82 80t67.5 110.5t50 123t32 119t11.5 96.5 q0 25 -3 51t-14.5 48.5t-30 38t-49.5 15.5q-51 0 -95 -30.5t-82 -80t-67.5 -110.5t-50 -123.5t-31.5 -120t-11 -96.5z" />
<glyph unicode="&#x26;" horiz-adv-x="1781" d="M152 279q0 70 26.5 137t70.5 127.5t101.5 111t115.5 87t115.5 57t102.5 20.5q49 0 86 -28.5t37 -85.5q0 -49 -52.5 -92.5t-127 -80t-156.5 -65.5t-141 -49q-14 -43 -18.5 -68.5t-4.5 -52.5q0 -82 46 -134t114 -83t145.5 -43t141.5 -12q102 0 220 28.5t219 87t169 148.5 t68 213q0 102 -57.5 156.5t-155.5 54.5q-43 0 -77 -17.5t-58.5 -45t-39 -63.5t-20.5 -75h-21q0 53 24 109.5t62.5 107.5t91 93t111.5 67q53 23 125 47.5t136.5 61t109.5 91t45 136.5q0 63 -40 99t-101 36q-27 0 -47.5 -12.5t-20.5 -42.5q0 -23 14.5 -60t28.5 -57 q-18 0 -37.5 2t-37 9t-28 20.5t-10.5 35.5q0 41 23 71t56.5 49.5t72.5 28.5t74 9q88 0 136 -51t48 -137q0 -80 -41 -131.5t-106.5 -85t-144.5 -58t-156.5 -50.5t-143 -59.5t-102.5 -88.5l4 -4q78 47 178 47q55 0 102.5 -17.5t81 -48.5t53 -74t19.5 -94q0 -84 -45 -161.5 t-121 -144.5t-172 -121t-197.5 -92t-201 -58.5t-180.5 -20.5q-74 0 -163 14.5t-167 49t-130 96t-52 156.5zM340 451q35 6 85 28.5t97 54t80 70.5t33 78q0 18 -10.5 43t-34.5 25q-47 0 -91 -34t-78 -82t-55.5 -98.5t-25.5 -84.5z" />
<glyph unicode="'" horiz-adv-x="454" d="M304 1253q-1 29 4 55.5t19.5 45t43.5 18.5t43 -18.5t19 -45t4 -55t-3 -47.5l-33 -418q0 -6 -1 -16t-4 -21.5t-8 -18.5t-17 -7t-17.5 7t-8.5 18.5t-4 21.5t-1 16l-33 418q-2 18 -3 47z" />
<glyph unicode="(" d="M244 297q0 123 33.5 246t95 237.5t146.5 217t186.5 184.5t216 140t233.5 83l-2 -25q-133 -35 -240.5 -109.5t-191.5 -177t-144.5 -225.5t-100.5 -254t-58.5 -265t-18.5 -257q0 -63 11.5 -130.5t35 -132.5t59.5 -122t85 -100l-15 -21q-160 143 -245.5 318.5t-85.5 392.5z " />
<glyph unicode=")" d="M-266 -414l2 25q133 35 240.5 109.5t191.5 177t144.5 225.5t100.5 254t58 265t18 257q0 66 -11 132.5t-34.5 131t-59.5 121.5t-85 100l14 21q160 -143 246 -318.5t86 -392.5q0 -123 -33.5 -245.5t-95 -237.5t-146.5 -217.5t-186.5 -184t-216 -140t-233.5 -83.5z" />
<glyph unicode="*" horiz-adv-x="1024" d="M270 1006q0 23 15.5 43t42.5 20q55 0 100 -16.5t96 -38.5v-21q-47 -12 -92 -31.5t-94 -19.5q-29 0 -48.5 17.5t-19.5 46.5zM354 784q0 29 21.5 50.5t52.5 38t64.5 28.5t58.5 25l12 -17q-8 -20 -21.5 -52t-31.5 -62.5t-42 -52t-50 -21.5q-23 0 -43.5 20.5t-20.5 42.5z M362 1223q0 23 22 43t44 20q27 0 48.5 -21.5t37.5 -52t28.5 -64.5t20.5 -56l-12 -15q-23 8 -54.5 20.5t-61 31t-51.5 41t-22 53.5zM569 696q0 20 6.5 45t15.5 49.5t20.5 48t19.5 42.5h16q16 -43 34.5 -89.5t18.5 -95.5q0 -29 -19 -47t-50 -18q-61 0 -62 65zM584 1307 q0 29 19.5 47t49.5 18q61 0 62 -65q0 -20 -6.5 -45t-15.5 -49.5t-19 -48t-21 -42.5h-16q-16 43 -34.5 89t-18.5 96zM723 909l12 15q23 -8 54.5 -20.5t61.5 -31t51.5 -41t21.5 -53.5q0 -23 -21.5 -43t-44.5 -20q-27 0 -48.5 21.5t-37.5 52t-27.5 64.5t-21.5 56zM725 1094 q8 20 22.5 52t33 62.5t41 52t48.5 21.5q23 0 43.5 -20.5t20.5 -42.5q0 -29 -21.5 -50.5t-52.5 -38t-64.5 -28.5t-58.5 -25zM764 989v21q47 12 92 31.5t94 19.5q29 0 48.5 -17.5t19.5 -46.5q0 -23 -15.5 -43t-41.5 -20q-55 0 -100.5 16.5t-96.5 38.5z" />
<glyph unicode="+" horiz-adv-x="1024" d="M90 334v102h332v334h102v-334h332v-102h-332v-334h-102v334h-332z" />
<glyph unicode="," horiz-adv-x="454" d="M-176 -285q39 27 79 65t72.5 84t53 95t20.5 98q0 41 -18.5 68t-46.5 53q25 35 62.5 55.5t80.5 20.5q35 0 62.5 -24.5t27.5 -59.5q0 -76 -38 -145.5t-94 -130t-122.5 -110.5t-124.5 -87z" />
<glyph unicode="-" horiz-adv-x="681" d="M51 299q10 29 23.5 62.5t23.5 70.5q2 6 33 12.5t55 6.5q47 0 93.5 -7.5t93.5 -7.5q51 0 76.5 2t42 6.5t31 8.5t40.5 8l-57 -139q-37 -6 -76 -7q-55 0 -110.5 9.5t-110.5 9.5q-47 0 -82 -7.5t-76 -27.5z" />
<glyph unicode="." horiz-adv-x="454" d="M-4 106q0 59 34 103.5t91 44.5q43 0 69.5 -28.5t26.5 -78.5q0 -59 -33.5 -103t-91.5 -44q-43 0 -69.5 28.5t-26.5 77.5z" />
<glyph unicode="/" horiz-adv-x="569" d="M-82 -41l682 1413h105l-682 -1413h-105z" />
<glyph unicode="0" d="M20 201q0 133 31 272t85 269t126 244t154 199t170 134t172 49q92 0 139 -62.5t47 -166.5q0 -133 -30.5 -272.5t-85 -270.5t-126 -245.5t-153.5 -201t-170 -136.5t-172 -50q-92 0 -139.5 67t-47.5 171zM184 219q0 -29 4.5 -61.5t15.5 -60t32.5 -46t56.5 -18.5 q74 0 138.5 61.5t118.5 158.5t97 219t73 243t45 228.5t15 176.5q0 29 -4 60.5t-15 58.5t-32.5 43t-56.5 16q-74 0 -138.5 -60t-119 -157.5t-97.5 -218.5t-72.5 -240.5t-45 -226t-15.5 -176.5z" />
<glyph unicode="1" d="M-2 -8v28q49 8 84 14.5t58.5 16.5t39 27.5t27.5 48.5q47 119 93 244t89 243.5t80 225t64.5 188.5t43 133t15.5 60q0 27 -25.5 31.5t-60.5 4.5q-29 0 -56.5 -5t-56.5 -5v29q207 25 404 92l14 -14q-10 -14 -34.5 -75.5t-57.5 -151t-73 -200t-79 -223t-75.5 -220 t-64.5 -193.5t-45 -140.5t-17 -60.5q0 -20 22.5 -31.5t52 -18.5t61 -11t50.5 -9v-28q-74 4 -147.5 6t-147.5 2q-66 0 -129.5 -2t-128.5 -6z" />
<glyph unicode="2" d="M-150 25v4q80 90 178.5 177t201 172t198.5 170t172 172t122 175t46 178q0 115 -33 184.5t-131 69.5q-63 0 -103 -45t-63.5 -100.5t-34 -105.5t-16.5 -62l-151 43q2 72 36.5 130t88 98t119 61.5t128.5 21.5q145 0 226 -84t81 -225q0 -111 -48 -202t-126.5 -169 t-179 -146.5t-203 -135t-197.5 -133t-165 -140.5h500q39 0 65.5 9.5t49 30t44 52t47.5 74.5l17 -14q-35 -68 -66.5 -138.5t-52.5 -146.5h-575h-70q-29 0 -46.5 -1t-27.5 -3t-18 -4h-4z" />
<glyph unicode="3" d="M-168 0q111 12 243 50t247.5 105.5t192.5 166t77 233.5q0 88 -48 150.5t-143 62.5q-31 0 -58.5 -14.5t-53.5 -30.5v20l569 449l-4 4h-383q-45 0 -80 -15.5t-59.5 -35t-40 -40t-25.5 -32.5l-28 4l155 254h604l15 -53l-494 -395q61 -6 107.5 -36t75 -73t43 -97t14.5 -112 q0 -102 -45 -184t-119 -146.5t-170 -111.5t-198.5 -80t-204 -52.5t-185.5 -27.5z" />
<glyph unicode="4" d="M-31 453v20q66 74 158 171t194.5 200.5t207 204t194.5 179.5t157.5 127t96.5 48q10 0 19.5 -7t9.5 -18q0 -6 -6.5 -30.5t-13.5 -53t-14 -53t-11 -35.5q-88 0 -156 -26.5t-125 -67.5t-111.5 -91t-115.5 -97q-14 -10 -56.5 -51.5t-92.5 -93.5t-101 -108.5t-86 -99.5h479 l158 467l161 62q-98 -274 -189 -547.5t-181 -552.5h-150l160 453h-586z" />
<glyph unicode="5" d="M-92 -2q123 6 252 43t234.5 105.5t172 173t66.5 247.5q0 109 -56.5 172.5t-166.5 63.5q-61 0 -102.5 -19.5t-86.5 -60.5l-22 16q59 129 107 260t100 263q-20 29 -27 69h221q16 -47 65.5 -76.5t98.5 -29.5q80 0 125 32.5t96 90.5l27 -27q-66 -88 -152 -139.5t-198 -51.5 q-59 0 -125 27t-103 74l-131 -326q35 12 72 17.5t74 5.5q78 0 141 -23.5t109 -66.5t72 -102.5t26 -133.5q0 -106 -41 -194.5t-109.5 -158t-159 -121.5t-188.5 -87t-199.5 -54.5t-191.5 -23.5v35z" />
<glyph unicode="6" d="M78 338q0 119 33.5 239.5t95 233.5t148.5 211t193.5 172t230.5 120t259 54v-37q-117 -8 -222 -56t-192 -124t-152.5 -173t-106.5 -202q43 23 91 34t97 11q61 0 106.5 -23.5t75 -62.5t43 -89t13.5 -105q0 -80 -35 -180.5t-94.5 -188.5t-139.5 -148.5t-172 -60.5 q-76 0 -127 35t-84 89t-47 120.5t-14 130.5zM209 188q0 -27 3 -57.5t13.5 -57t30.5 -43t57 -16.5q68 0 125.5 68t100.5 161t67.5 188t24.5 151q0 80 -37 135t-125 55q-43 0 -70.5 -8t-45 -25.5t-30 -47t-26.5 -73.5q-35 -104 -61.5 -211.5t-26.5 -218.5z" />
<glyph unicode="7" d="M152 0q41 150 127 304.5t193.5 307t224 300t216.5 280.5h-458q-45 0 -71 -10.5t-44 -37t-34.5 -73.5t-45.5 -119h-29l105 379h684l6 -37q-86 -102 -189.5 -255.5t-202.5 -328.5t-183 -359.5t-132 -350.5h-167z" />
<glyph unicode="8" d="M33 266q0 88 38 155.5t97 121t131 95.5t137 81q-43 70 -74.5 142.5t-31.5 158.5q0 166 98 257t260 91q59 0 108.5 -20.5t83 -57.5t52 -86t18.5 -106q0 -68 -33.5 -121t-86 -95t-114 -72t-116.5 -50q51 -94 95 -194.5t44 -211.5q0 -80 -29.5 -151.5t-82 -124.5t-122 -84 t-151.5 -31q-61 0 -119.5 22.5t-103.5 63.5t-71.5 96.5t-26.5 120.5zM184 242q0 -35 10.5 -76t31 -77t51 -60.5t71.5 -24.5q66 0 112 27.5t74.5 73t43 100.5t14.5 112q0 53 -13.5 102.5t-33 95.5t-45 91t-49.5 90q-55 -37 -104.5 -87t-85.5 -108.5t-56.5 -124t-20.5 -134.5z M469 1092q0 -39 10 -81t27.5 -83t39 -79t42.5 -69q102 51 166.5 150.5t64.5 214.5q0 78 -43 130t-125 52q-47 0 -80.5 -21.5t-56 -55t-34 -75.5t-11.5 -83z" />
<glyph unicode="9" d="M-113 4q117 20 227.5 68.5t205 120t169 165t123.5 201.5q-37 -16 -83 -30.5t-87 -14.5q-133 0 -195.5 74t-62.5 200q0 86 35 187.5t96.5 188.5t147.5 145.5t188 58.5q66 0 111 -31.5t74.5 -82t43 -112t13.5 -120.5q0 -217 -77 -398.5t-210 -317.5t-312 -224t-386 -119z M344 754q0 -80 37 -135.5t125 -55.5q43 0 70.5 8.5t45 25.5t30 47t26.5 73q35 104 61.5 211.5t26.5 218.5q0 29 -3 58.5t-13.5 55t-31 42t-56.5 16.5q-68 0 -125.5 -67.5t-100.5 -160t-67.5 -187.5t-24.5 -150z" />
<glyph unicode=":" horiz-adv-x="454" d="M-4 106q0 59 34 103.5t91 44.5q43 0 69.5 -28.5t26.5 -78.5q0 -59 -33.5 -103t-91.5 -44q-43 0 -69.5 28.5t-26.5 77.5zM168 639q0 59 34 103t91 44q43 0 69.5 -28.5t26.5 -77.5q0 -59 -33.5 -103.5t-91.5 -44.5q-43 0 -69.5 29t-26.5 78z" />
<glyph unicode=";" horiz-adv-x="454" d="M-176 -285q39 27 79 65t72.5 84t53 95t20.5 98q0 41 -18.5 68t-46.5 53q25 35 62.5 55.5t80.5 20.5q35 0 62.5 -24.5t27.5 -59.5q0 -76 -38 -145.5t-94 -130t-122.5 -110.5t-124.5 -87zM168 639q0 59 34 103t91 44q43 0 69.5 -28.5t26.5 -77.5q0 -59 -33.5 -103.5 t-91.5 -44.5q-43 0 -69.5 29t-26.5 78z" />
<glyph unicode="&#x3c;" horiz-adv-x="1024" d="M98 322v102l750 350v-102l-655 -299l655 -277v-100z" />
<glyph unicode="=" horiz-adv-x="1024" d="M90 190v103h766v-103h-766zM90 479v103h766v-103h-766z" />
<glyph unicode="&#x3e;" horiz-adv-x="1024" d="M98 -4v100l656 277l-656 299v102l750 -350v-102z" />
<glyph unicode="?" horiz-adv-x="796" d="M119 106q0 59 34 103.5t91 44.5q43 0 69.5 -28.5t26.5 -78.5q0 -59 -34 -103t-91 -44q-43 0 -69.5 28.5t-26.5 77.5zM274 330q6 88 39 171t77 160.5t94.5 151.5t92 143.5t69.5 134t28 126.5q0 18 -4 38.5t-14.5 39t-28 29.5t-41.5 11q-37 0 -64.5 -19.5t-49 -48 t-38 -62.5t-33.5 -64q-12 0 -29.5 11t-32.5 26.5t-26.5 33t-11.5 29.5q0 25 29.5 48.5t69.5 42t83 29.5t70 11q53 0 99 -17.5t80 -50t53.5 -77.5t19.5 -99q0 -78 -31 -142t-79 -123.5t-107.5 -117t-115.5 -120t-104.5 -134t-72.5 -161.5h-21z" />
<glyph unicode="@" horiz-adv-x="1638" d="M152 635q0 166 59 301t161.5 232.5t239 150.5t287.5 53q141 0 264 -46t213 -126t142.5 -190.5t52.5 -239.5q0 -78 -24.5 -164t-74 -158.5t-120 -119.5t-162.5 -47q-51 0 -86 19t-56.5 44t-30.5 48.5t-9 33.5h-4q-8 -12 -30 -34.5t-52.5 -45t-69.5 -41t-84 -22.5 q-20 0 -53 6t-66 31.5t-56.5 77t-23.5 139.5q0 53 24.5 136t75 161.5t126 135t180.5 56.5q35 0 58.5 -9t40 -24.5t26.5 -35t20 -37.5l23 81h137l-133 -528q-2 -10 -5 -30.5t3 -42t23.5 -38t54.5 -16.5q68 0 119 41t86.5 102.5t54 136t18.5 142.5q0 88 -40 185.5t-116.5 178 t-189.5 134t-256 53.5q-123 0 -230.5 -46t-187.5 -136t-125 -222.5t-45 -302.5q0 -111 42 -215t121 -186t191.5 -132t252.5 -50q68 0 124 8t103 21.5t91 30.5t87 38l29 -53q-100 -43 -206 -79t-226 -36q-201 0 -346.5 66.5t-238.5 168t-138 219t-45 222.5zM709 537 q0 -94 39.5 -133t97.5 -39q31 0 68.5 28.5t73.5 85t62.5 139t36.5 193.5q0 129 -88 129q-37 0 -87 -26.5t-95 -79t-76.5 -127t-31.5 -170.5z" />
<glyph unicode="A" horiz-adv-x="1214" d="M-193 -8v28q55 12 93.5 31t73 51.5t71.5 84t88 126.5q33 51 85 131t117.5 174.5t139.5 199t152 204.5t155.5 191.5t147.5 158.5l47 -12v-1227q0 -31 13.5 -48t33.5 -28.5t46 -18.5t48 -18v-28q-59 6 -119.5 7t-119.5 1q-74 0 -148 -1t-147 -7v28q66 16 107.5 31t66 33 t34 45t9.5 64v380h-424q-18 -25 -57 -90t-79 -140t-71 -141.5t-31 -95.5q0 -25 16.5 -40t40 -23t49 -12t44.5 -11v-28q-63 6 -125 7t-125 1q-59 0 -115.5 -2t-116.5 -6zM408 631h393v543q-109 -125 -206 -262.5t-187 -280.5z" />
<glyph unicode="B" horiz-adv-x="1214" d="M-78 -8l4 28q51 10 85 19.5t55.5 23t36 37t28.5 62.5q10 27 30.5 84t48.5 134t59.5 166t63.5 179t61.5 175t52 153.5t36 114.5t13.5 57q0 25 -19.5 39t-46.5 22t-54.5 11t-43.5 6l4 28q113 0 215 4t233 4q72 0 136.5 -16t113.5 -51t78 -89.5t29 -131.5q0 -70 -24.5 -118 t-68.5 -82t-105.5 -56.5t-133.5 -38.5v-6q133 -12 214 -82t81 -211q0 -119 -57.5 -207t-143.5 -145.5t-187.5 -85t-189.5 -27.5q-111 0 -184.5 4t-142.5 4q-70 0 -138.5 -1t-138.5 -7zM303 98q71 -65 197 -65h4q84 0 158.5 33.5t130 93t87 138.5t31.5 171q0 78 -29.5 128 t-81.5 80t-125 41t-161 11zM524 770q98 0 180 12.5t140.5 52t91.5 112.5t33 192q0 68 -49.5 113.5t-141.5 45.5q-8 0 -30.5 -3t-36.5 -9z" />
<glyph unicode="C" horiz-adv-x="1290" d="M111 399q0 182 73.5 357.5t200.5 312.5t296 220t359 83q66 0 133.5 -16.5t124.5 -44.5q-25 -98 -45 -196.5t-39 -196.5h-20q-4 72 -17.5 143.5t-45 128.5t-85 93t-137.5 36q-92 0 -174 -43t-149.5 -114.5t-119.5 -164t-88 -190.5t-55.5 -194.5t-19.5 -176.5 q0 -78 17.5 -146.5t54.5 -120.5t97 -82t146 -30q90 0 168 35t144.5 90.5t122 124t100.5 137.5l27 -18q-43 -84 -113 -167t-155 -149.5t-182 -108.5t-195 -42q-96 0 -175 33t-134.5 92t-85 140t-29.5 175z" />
<glyph unicode="D" horiz-adv-x="1366" d="M-117 0l4 29q68 4 109 17t65.5 30.5t36 35t15.5 29.5q2 8 30.5 82t68.5 183.5t86 238.5t85 246t64.5 208t25.5 122q0 27 -27.5 43t-64.5 25t-74 14.5t-55 7.5v20l145 4q53 2 114.5 4t125 5.5t126 5.5t116.5 2q217 0 338.5 -103.5t121.5 -333.5q0 -154 -51 -301t-141 -269 t-214 -208t-271 -117q-35 -8 -79 -12t-88 -6t-85 -2h-72h-455zM285 72q41 -18 87 -24.5t91 -6.5q172 0 300 80t213 207t128 282.5t43 307.5q0 82 -15.5 153.5t-50 124.5t-92 84t-141.5 31q-76 0 -154 -17q-106 -305 -209.5 -609t-199.5 -613z" />
<glyph unicode="E" horiz-adv-x="1214" d="M-98 -8v22q63 18 116.5 36t77.5 67q18 37 54 131t79 213t87 249t80 239.5t59.5 185t23.5 86.5q0 18 -22.5 31.5t-52 24.5t-59.5 17t-46 9v28h930q-2 -47 -4 -91t-2 -91t2 -93t4 -93h-25q-20 23 -38.5 63.5t-34 86.5t-25.5 89t-16 68q-98 12 -195 12h-193l-204 -549 q125 0 194.5 7.5t114.5 30t76.5 68.5t81.5 126h43q-59 -141 -111.5 -282.5t-95.5 -289.5h-39q6 57 10 112.5t4 112.5q0 35 -12 50.5t-29 15.5h-252l-200 -604q45 -4 115.5 -12.5t147.5 -15.5t149.5 -13t123.5 -6q74 96 148.5 184t162.5 160l17 -21q-47 -88 -82 -180 t-72 -184q-39 2 -134 4t-215 3t-247 1h-229q-66 0 -133.5 -2t-132.5 -6z" />
<glyph unicode="F" horiz-adv-x="1138" d="M-92 -8l4 28q55 12 91 21.5t58.5 22t36 32t25.5 54.5q18 53 51 145t71 200.5t77.5 223.5t72.5 213t53.5 167.5t20.5 90.5q0 29 -30.5 48t-72.5 31.5t-83 20.5t-60 13l4 28h996q-4 -43 -5 -87t-1 -87q0 -57 1 -113.5t5 -111.5h-25q-16 39 -33.5 66.5t-35 61.5t-32 84 t-26.5 134l-383 8l-176 -532q111 0 178.5 5t113.5 24.5t81 57.5t80 103l16 -20q-55 -125 -103.5 -253t-82.5 -261h-23q-2 29 2 58.5t4 70.5q0 61 -8 96t-36.5 53.5t-84 23.5t-151.5 5q-8 -31 -24.5 -81t-37 -110.5t-42 -124t-39 -120t-29 -99.5t-11.5 -61q0 -25 38 -43.5 t87 -30.5t96.5 -18t65.5 -9v-28q-100 4 -198.5 6t-198.5 2q-74 0 -148.5 -2t-148.5 -6z" />
<glyph unicode="G" horiz-adv-x="1402" d="M98 428q0 197 79 369t207 300t292 201.5t332 73.5q133 0 232 -27.5t185 -66.5l-120 -336h-25q-2 80 -14.5 149.5t-46 121t-92 81t-152.5 29.5q-100 0 -189.5 -44t-165 -118t-137 -169t-104.5 -197.5t-65.5 -204t-22.5 -189.5q0 -82 16.5 -153.5t55 -124.5t100 -84 t151.5 -31q45 0 90.5 8.5t83 27.5t68.5 51t45 79q4 14 19.5 63.5t32 102.5t29.5 98t13 51q0 18 -23.5 32t-54 23t-60.5 16t-42 13v25q72 -4 144.5 -7t144.5 -3q66 0 131 3t131 7v-25q-66 -10 -106.5 -25.5t-71.5 -59.5t-58.5 -126.5t-64.5 -228.5q18 -4 37.5 -8t40.5 -2v-21 q-63 -23 -129 -48t-133.5 -46.5t-136 -35t-138.5 -13.5q-106 0 -199.5 30.5t-162 91t-107.5 147.5t-39 200z" />
<glyph unicode="H" horiz-adv-x="1478" d="M-109 -8v33q57 10 92 18t56.5 20.5t36 34t28.5 58.5q10 23 41 106.5t72 196t86 240.5t82 240t61.5 191.5t24.5 98.5q0 41 -45 55t-113 27v28q70 -4 138.5 -6t138.5 -2q74 0 146.5 2t146.5 6v-28q-47 -6 -83 -15.5t-63.5 -28t-50 -47t-41.5 -75.5q-45 -111 -86 -220.5 t-76 -219.5h582q6 20 20.5 62t33 94t39 110.5t37.5 108.5t28.5 88t11.5 53q0 29 -18.5 44t-44 24t-53 13.5t-48.5 8.5v28q74 -4 147.5 -6t147.5 -2q70 0 139.5 3t139.5 5v-28q-53 -8 -94.5 -23.5t-88.5 -46.5q-10 -8 -33.5 -58t-55.5 -129t-67.5 -177.5t-71.5 -201 t-68.5 -200.5t-58.5 -176t-41 -129t-15 -57q0 -23 23.5 -40.5t54 -28.5t61.5 -17.5t47 -6.5v-28q-68 4 -134.5 6t-133.5 2q-78 0 -158 -2t-158 -6v28q59 8 95 17.5t61 31t43 59.5t43 103l149 416h-581q-4 -23 -19.5 -67.5t-36 -101t-42 -119t-40 -116t-30.5 -93t-12 -54.5 q0 -18 19.5 -32.5t44 -23.5t49 -14.5t36.5 -5.5v-28q-66 4 -133.5 6t-132.5 2q-68 0 -136.5 -2t-138.5 -6z" />
<glyph unicode="I" horiz-adv-x="757" d="M-88 -8v28q61 16 98 26.5t58.5 25t34 35t24.5 53.5q12 35 44 122t73 199.5t85 235.5t80.5 231.5t60.5 186t24 100.5q0 20 -19.5 34.5t-46.5 24t-54.5 13.5t-45.5 4v28q72 -4 144.5 -6t143.5 -2q66 0 139.5 2t139.5 6l-6 -28q-55 -6 -89 -13.5t-57.5 -25t-41 -48 t-39.5 -83.5q-14 -35 -47 -123t-73 -200.5t-84 -236.5t-80 -229.5t-58.5 -179.5t-22.5 -88q0 -20 21.5 -31.5t51 -17.5t58.5 -9t41 -6v-28q-72 4 -144.5 6t-144.5 2q-68 0 -134 -2t-134 -6z" />
<glyph unicode="J" horiz-adv-x="1024" d="M-41 178q0 29 9 57.5t25.5 51t42 38t56.5 15.5q49 0 78 -25.5t29 -74.5q0 -47 -43 -76t-86 -29q2 -72 37.5 -103.5t105.5 -31.5q51 0 94 29.5t79 78t65.5 107.5t54 120.5t43 117l31.5 94.5q20 57 43.5 129t47 146.5t46 145t40 128t28 94.5t10.5 43q0 25 -33 40t-74 23.5 t-81 11.5t-56 3v28q74 -4 146.5 -6t146.5 -2q88 0 175 2t175 6v-28q-78 -8 -122 -26.5t-68.5 -49.5t-40 -77t-37.5 -107q-66 -182 -127.5 -375t-120.5 -357q-23 -61 -73 -124.5t-114.5 -115.5t-138 -86t-145.5 -34q-49 0 -93 14.5t-79 42t-55.5 68.5t-20.5 94z" />
<glyph unicode="K" horiz-adv-x="1402" d="M-102 -8v35q20 6 49.5 12t58.5 15t53.5 22.5t32.5 32.5q25 53 63 153t81 221t87 248t78.5 233.5t57 178t22.5 80.5q0 23 -25.5 37t-58 25t-64.5 17.5t-44 8.5v28q84 -4 167 -6t169 -2q66 0 133 3t133 5v-28q-31 -4 -67 -9.5t-68.5 -17.5t-57 -33.5t-34.5 -56.5l-195 -530 l4 -5q37 25 103.5 71t144.5 102.5t159 119t146.5 118.5t107.5 103.5t42 73.5q0 18 -23 29.5t-52.5 17.5t-58 10.5t-43.5 6.5v28q70 -4 138.5 -6t138.5 -2t139.5 2t138.5 6v-28q-96 -35 -188 -89.5t-182 -118t-178 -130t-179 -127.5q8 -27 26.5 -82t42.5 -124t50.5 -143.5 t52 -143t47 -123t33.5 -83.5q16 -35 41 -54t54.5 -31.5t63.5 -20.5t67 -21v-28q-76 4 -150 6t-149 2q-72 0 -142.5 -2t-142.5 -6v28q16 6 44 14t55.5 18.5t47 24t19.5 32.5q0 23 -21.5 95t-52.5 166.5t-65.5 196t-63.5 181.5l-233 -156q-20 -57 -47 -131t-51.5 -144.5 t-41 -128t-16.5 -86.5q0 -12 32.5 -25.5t73.5 -25.5t81 -20l55 -11v-28q-86 4 -173.5 6t-173.5 2q-74 0 -146.5 -2t-145.5 -6z" />
<glyph unicode="L" horiz-adv-x="1175" d="M-113 -8v28q51 12 89 24.5t66 33t49.5 51.5t39.5 80q12 33 43 117t69 192.5t77.5 227t73.5 220t55.5 171t21.5 77.5q0 25 -16.5 40.5t-41 25.5t-51 16.5t-45.5 14.5v28q82 -2 163 -5t165 -3q94 0 187.5 2t187.5 6v-28q-166 -16 -250 -44t-104 -75q-16 -41 -51 -135 t-78 -213t-88.5 -249t-82 -240.5t-60 -187.5t-23.5 -91q0 -8 15 -14.5t39.5 -8.5t54.5 -3t59 -1q35 0 79.5 1t93 3t94.5 7.5t79 11.5q74 131 166 249.5t196 229.5l25 -19q-84 -121 -121 -260t-66 -280q-12 2 -25.5 3t-43 2t-82.5 1t-144.5 1t-226.5 1h-330q-66 0 -129 -2 t-129 -6z" />
<glyph unicode="M" horiz-adv-x="1744" d="M-160 -8l6 41q41 43 100.5 113.5t130 159.5t147.5 188.5t152 196.5t141.5 188.5t116.5 162t79.5 115.5t29.5 51q0 29 -29.5 47.5t-68.5 29.5t-77 16.5t-56 9.5v28q66 -4 133.5 -6t132.5 -2q53 0 106.5 3t106.5 5q-39 -125 -68.5 -255t-57 -262t-57.5 -267t-67 -268l4 -4 q63 80 142.5 176t160 197.5t158.5 199.5t141.5 183t107.5 147.5t58 89.5q8 16 12.5 31.5t8.5 31.5q51 -2 100 -5t101 -3q45 0 90 2t90 6v-28q-59 -14 -98 -27.5t-63.5 -27t-38 -30t-21.5 -34.5q-10 -29 -43 -116t-74 -201.5t-86 -242.5t-82 -239.5t-61.5 -190.5t-24.5 -98 q0 -16 25.5 -30.5t58.5 -25.5t64.5 -18t46.5 -10v-28q-78 6 -155 7t-155 1q-68 0 -135 -2t-135 -6l6 28q39 12 69.5 19.5t53.5 18t40 26.5t32 47q18 39 45.5 113.5t59.5 168t69 199t72.5 210t70.5 198.5t66 166l-4 6q-23 -31 -76 -100.5t-125 -161.5t-156 -199.5t-169 -216 t-164.5 -209t-142 -177.5t-101.5 -123t-43 -46q-12 0 -14.5 9t-2.5 16q0 14 14.5 80.5t37 168t51 224.5t56.5 248.5t51.5 242.5t35.5 203l-4 4l-85 -119t-136 -191.5t-158 -226t-149.5 -222t-111.5 -179.5t-44 -98q0 -27 26.5 -44.5t62.5 -27.5t69.5 -15t48.5 -12v-28 q-66 4 -130.5 6t-129.5 2q-47 0 -94.5 -1t-94.5 -7z" />
<glyph unicode="N" horiz-adv-x="1441" d="M-164 -8v28q39 6 79 15.5t76 25t64.5 40t44.5 63.5q12 29 44 113.5t71 195.5t82 231.5t78 224t57.5 174.5t22.5 77q0 29 -27 52t-61.5 40.5t-71.5 27t-55 11.5l6 28q53 -2 104 -5t105 -3q47 0 94 4t94 4q92 -266 191.5 -527t199.5 -523h4q-6 -20 2.5 5t26.5 80.5 t45 134.5t54.5 165l55 172t50 157.5t36 119.5t13.5 61q0 35 -25.5 57.5t-61.5 35.5t-73 20.5t-61 13.5v28q70 -2 137.5 -5t136.5 -3q61 0 124 3t124 5v-28q-47 -10 -82 -22.5t-61.5 -33t-48 -49t-39.5 -71.5q-20 -45 -51 -126t-68 -184.5t-78 -220.5t-78 -230.5t-69.5 -216 t-55.5 -177.5h-37q-104 299 -213.5 594.5t-232.5 588.5q-10 -29 -38 -110.5t-62.5 -189t-73.5 -228.5t-72 -224.5t-53.5 -178t-20.5 -93.5q0 -27 22.5 -46t55.5 -32.5t67 -23.5t56 -17v-28q-68 4 -136.5 6t-137.5 2q-70 0 -139.5 -2t-139.5 -6z" />
<glyph unicode="O" horiz-adv-x="1327" d="M96 354q0 104 32 221t89 230t137 216t175.5 181t203.5 124t223 46q90 0 155 -29.5t105.5 -83t61 -125t20.5 -157.5q0 -104 -31.5 -221t-89 -229.5t-137 -216t-175 -181.5t-204 -124t-223.5 -46q-88 0 -153.5 29.5t-106.5 83t-61.5 125t-20.5 157.5zM289 317 q0 -59 11 -112t36.5 -93t71 -63.5t112.5 -23.5q92 0 172 56t144.5 146t114.5 202t85 223.5t52.5 211t17.5 162.5q0 59 -11.5 112.5t-38 93.5t-72.5 63.5t-116 23.5q-90 0 -168.5 -56.5t-143 -146.5t-115 -201.5t-84 -223t-51 -211t-17.5 -163.5z" />
<glyph unicode="P" horiz-adv-x="1138" d="M-98 -8v28q70 10 109.5 25.5t63 34t35 40t23.5 48.5t42 108.5t68 191.5t78.5 230.5t74.5 227t55.5 183.5t21.5 95q0 23 -24.5 40.5t-58.5 29.5t-66.5 21.5t-49.5 15.5v28q74 -4 147 -6t146 -2q53 0 108.5 4t108.5 4q72 0 144.5 -17t130 -54t93.5 -93.5t36 -134.5 q0 -154 -67.5 -246t-174 -142t-237.5 -66.5t-256 -16.5q-6 -27 -29 -92t-46.5 -138t-43 -133.5t-19.5 -78.5q0 -29 38 -48.5t87 -31.5t97.5 -18t68.5 -9v-28q-18 2 -65 4t-106.5 3t-123.5 1h-116q-74 0 -148 -2t-145 -6zM463 602q109 2 206 28.5t171.5 80t119 135.5 t44.5 194q0 133 -73 189.5t-194 56.5q-10 0 -22.5 -2t-22.5 -4q-59 -168 -114.5 -337t-114.5 -341z" />
<glyph unicode="Q" horiz-adv-x="1327" d="M-63 -106q68 27 137 42t141 15q84 0 175 -21.5t183.5 -48t182.5 -48t172 -21.5q104 0 192 38.5t166 106.5l19 -20q-125 -115 -268.5 -181.5t-317.5 -66.5q-76 0 -155 32.5t-158.5 71.5t-159.5 72t-162 33q-37 0 -73 -8.5t-70 -20.5zM96 354q0 104 32 221t89 230t137 216 t175.5 181t203.5 124t223 46q90 0 155 -29.5t105.5 -83t61 -125t20.5 -157.5q0 -104 -31.5 -221t-89 -229.5t-137 -216t-175 -181.5t-204 -124t-223.5 -46q-88 0 -153.5 29.5t-106.5 83t-61.5 125t-20.5 157.5zM289 317q0 -59 11 -112t36.5 -93t71 -63.5t112.5 -23.5 q92 0 172 56t144.5 146t114.5 202t85 223.5t52.5 211t17.5 162.5q0 59 -11.5 112.5t-38 93.5t-72.5 63.5t-116 23.5q-90 0 -168.5 -56.5t-143 -146.5t-115 -201.5t-84 -223t-51 -211t-17.5 -163.5z" />
<glyph unicode="R" horiz-adv-x="1251" d="M-92 -8l4 28q68 14 105.5 25.5t59 32t37 55.5t36.5 96q10 31 38.5 113t66.5 188.5t78 223t73.5 217t55 170t21.5 82.5q0 23 -20.5 37t-48 23t-55 15.5t-42.5 12.5v28q57 -4 112.5 -6t113.5 -2q59 0 120.5 4t120.5 4q70 0 142.5 -11t132 -42t97.5 -84t38 -139 q0 -98 -45 -170t-115.5 -119t-158 -72.5t-170.5 -33.5v-4q90 -27 141 -66t76.5 -93t36 -123t18.5 -155q6 -63 21.5 -103t44 -62.5t72.5 -30.5t108 -11l-2 -20q-41 0 -83 -4t-83 -4q-76 0 -126 14t-81 47t-46.5 85t-21.5 126q-8 92 -17 164t-38 120t-86 72.5t-166 24.5 q-6 -23 -20.5 -69t-34 -101t-40 -114.5t-37.5 -112.5t-28.5 -94t-11.5 -58q0 -16 21.5 -28.5t49 -21.5t54.5 -15t39 -11v-28q-68 6 -136.5 7t-135.5 1q-72 0 -142.5 -1t-142.5 -7zM485 682q14 0 37 1t48.5 2t50 4t43.5 7q66 16 125 49t106 82.5t74.5 113t27.5 142.5 q0 106 -66.5 159.5t-162.5 53.5q-41 0 -70 -6z" />
<glyph unicode="S" horiz-adv-x="1138" d="M16 68l95 430h24q0 -98 14.5 -186.5t54.5 -154t111.5 -103.5t188.5 -38q55 0 107.5 19.5t93 54.5t65.5 84t25 109q0 88 -34 152.5t-85 115.5t-111.5 95t-112 91t-85 103.5t-33.5 130.5q0 102 48 178t123 125t168 73.5t181 24.5q72 0 150.5 -22.5t140.5 -55.5 q-29 -86 -47.5 -172t-32.5 -176h-25q-4 72 -21.5 137.5t-52 117.5t-90 83t-137.5 31q-53 0 -96 -19.5t-73.5 -53.5t-47 -79t-16.5 -96q0 -74 33.5 -129t85 -101t112 -89t111.5 -93.5t85 -114t34 -149.5q0 -92 -47.5 -172t-121 -137t-162.5 -90t-175 -33q-119 0 -227.5 35 t-217.5 74z" />
<glyph unicode="T" horiz-adv-x="1290" d="M123 -8v28q61 12 125.5 25.5t118.5 44.5q10 6 32.5 55.5t52 127t64.5 176t71 203t70.5 207t62.5 188.5t48 147t27 84h-301q-59 -78 -130 -142.5t-149 -121.5l-20 14q41 78 78.5 156t76.5 155q137 -6 274.5 -7t276.5 -1q135 0 267 1t268 7q-10 -90 -18.5 -179t-12.5 -181 h-29q-41 72 -67.5 146.5t-44.5 152.5h-279q-6 -20 -26.5 -80.5t-49 -144.5t-64.5 -183.5t-71 -202t-68.5 -198.5t-59 -171t-41 -123t-15.5 -52q0 -23 38 -40t87 -30.5t96 -21.5t66 -11v-28q-23 2 -71 4t-107.5 3t-123.5 1h-114q-86 0 -169 -2t-169 -6z" />
<glyph unicode="U" horiz-adv-x="1441" d="M164 299q0 41 21.5 119t55 173t71.5 196.5t72 190.5t55.5 154.5t21.5 88.5q0 10 -4 22t-23.5 25.5t-57.5 26t-106 22.5v22q74 -4 146.5 -6t146.5 -2q78 0 155 2t154 6v-28q-92 -4 -146 -36t-81 -97q-16 -35 -45 -110t-63.5 -167t-70.5 -194.5t-64.5 -194.5t-47 -165 t-18.5 -107q0 -57 22.5 -100.5t59.5 -73t85 -44t101 -14.5q31 0 67 4t76.5 19.5t88 45t104.5 81.5q20 18 47 70.5t58.5 127t66.5 164.5t67.5 182.5t61.5 179.5t50.5 157.5t34.5 116.5t13 54q0 27 -24.5 43.5t-58 27.5t-68.5 17.5t-55 12.5v28q70 -4 138 -6t138 -2 q57 0 113.5 2t113.5 6v-28q-18 -2 -41.5 -9.5t-47 -17.5t-43 -24.5t-29.5 -30.5q-20 -35 -56.5 -121t-86.5 -207t-113.5 -270.5t-137.5 -311.5q-31 -68 -73.5 -132t-106 -114t-148.5 -82t-202 -32q-74 0 -143.5 23.5t-124 67.5t-87 106.5t-32.5 142.5z" />
<glyph unicode="V" horiz-adv-x="1214" d="M184 1311v28q78 -4 155 -6t155 -2q57 0 114.5 3t116.5 5v-28q-43 -6 -83 -16.5t-69.5 -30t-47 -54t-17.5 -90.5v-923l4 -4q90 117 176 236.5t160 231t135 210t105.5 175t69 124t24.5 57.5q0 12 -21.5 25.5t-55.5 24.5t-75 20.5t-78 13.5v28q63 -2 125 -5t125 -3 q49 0 98.5 3t98.5 5v-28q-33 -33 -100.5 -122t-154.5 -211t-188.5 -263.5t-203 -280.5t-195.5 -264t-170 -211l-51 12v1241q0 27 -15.5 43.5t-38 26.5t-49 16.5t-49.5 12.5z" />
<glyph unicode="W" horiz-adv-x="1896" d="M213 1311v28q59 -4 118.5 -6t119.5 -2q66 0 130 3t130 5v-28q-31 -6 -60.5 -19.5t-53.5 -31t-38 -39t-14 -47.5q-2 -262 -3 -511t-1 -497l2 -4l354 422v643q0 18 -12.5 31.5t-29.5 24.5t-36.5 18.5t-32.5 9.5v28q121 -6 240 -7t240 -1q86 0 171 1t171 7v-28 q-156 -137 -289 -305t-258 -326v-510h6q16 20 59 71.5t103.5 122t131.5 156.5t142.5 175t139 176t120 161t83 129.5t30.5 81.5q0 16 -21.5 27.5t-51 19.5t-61.5 13.5t-54 7.5v28q59 -4 117.5 -6t117.5 -2q47 0 95 2t96 6v-28q-322 -352 -613 -699.5t-569 -652.5l-35 18v533 q-119 -141 -234.5 -281.5t-246.5 -269.5l-45 14q4 133 5 281.5t1 306.5q0 160 -1 324t-1 344q0 29 -45 49t-117 33zM1061 750h6q47 70 104.5 143.5t107.5 141t85 122.5t35 88q0 16 -14.5 26.5t-34 16.5t-41 8t-33.5 2q-68 0 -110 -14t-65.5 -53t-31.5 -107.5t-8 -177.5v-196 z" />
<glyph unicode="X" horiz-adv-x="1327" d="M-164 -8v28q72 20 133.5 52t117.5 74t113.5 94.5t118.5 109.5l318 297l-164 576q-6 23 -36.5 38t-68.5 26t-74 17.5t-52 6.5v28q68 -4 135 -6t137 -2h98t80 1t82 3t103 4v-28q-20 -4 -54.5 -8.5t-67 -13.5t-56 -25.5t-23.5 -46.5q0 -12 6 -46t15.5 -80.5t20.5 -98.5 t22.5 -100t21.5 -86t16 -56q6 6 42 40.5t86 84t105.5 106.5t103.5 109.5t79 92.5t31 52t-23.5 24.5t-57.5 22.5t-72 18.5t-66 10.5v28q61 -2 122.5 -5t122.5 -3q63 0 126 2t126 6v-28q-176 -129 -355 -289t-360 -313q41 -150 81 -298.5t94 -295.5q8 -23 27.5 -36t46 -22.5 t59 -17.5t69.5 -19v-28q-72 6 -144.5 7t-143.5 1q-74 0 -147 -1t-146 -7v28q31 10 63.5 17.5t59 16.5t43 23.5t16.5 37.5q0 10 -7 45t-18.5 82t-26 101t-27.5 105.5t-23.5 93.5t-14.5 64l-54 -54l-86 -86t-100.5 -102.5t-96.5 -103.5t-71.5 -87t-27.5 -54q0 -25 19.5 -39 t47 -25.5t58.5 -18.5t55 -16v-28q-72 6 -142.5 7t-141.5 1q-68 0 -136.5 -2t-136.5 -6z" />
<glyph unicode="Y" horiz-adv-x="1290" d="M109 -8v28q84 12 136 22.5t83.5 28t50 46t37.5 78.5l166 456q-14 43 -39 125t-52.5 172t-57.5 170t-56 119q-8 14 -37 26.5t-61.5 22.5t-63.5 16.5t-45 8.5v28q76 -4 149.5 -6t149.5 -2q78 0 154.5 2t154.5 6v-28q-31 -2 -63.5 -7.5t-60 -14.5t-45 -23.5t-17.5 -36.5 q0 -20 17.5 -89t41 -152t47 -165t37.5 -131q18 20 59.5 63.5t92.5 98.5t105.5 115.5t99.5 113t73.5 91t28.5 49.5q0 23 -29.5 38t-67.5 25t-73 16.5t-47 8.5v28q72 -2 143.5 -5t143.5 -3q55 0 110.5 3t110.5 5v-28q-23 -16 -73 -56.5t-115.5 -93.5t-140.5 -117.5 t-148.5 -132t-140 -135t-115.5 -129.5q-18 -63 -47 -144t-55.5 -159t-45 -142.5t-18.5 -95.5q0 -18 27.5 -31.5t69.5 -22.5t92 -17t97 -15v-28q-12 4 -114.5 6t-288.5 2q-45 0 -96 -1t-99.5 -2t-91.5 -2t-73 -3z" />
<glyph unicode="Z" horiz-adv-x="1290" d="M-55 39q309 313 615 622.5t614 624.5q-150 -2 -298.5 -3t-297.5 -5q-63 -96 -141.5 -178t-164.5 -154l-22 17q104 182 182 376q117 -4 234.5 -6t234.5 -2q135 0 267 1t268 7v-28q-102 -109 -251 -258.5t-319 -317.5t-348 -345t-338 -341q168 2 337 5t337 20q53 59 95 102 t86 79t93.5 68.5t116.5 71.5l17 -20q-74 -88 -137.5 -183.5t-114.5 -199.5q-35 2 -93.5 4t-128 3t-143.5 1h-133h-154q-82 0 -159.5 -1t-143 -3t-100.5 -4z" />
<glyph unicode="[" d="M6 -377l598 1749h541l-19 -61h-372l-555 -1626h372l-24 -62h-541z" />
<glyph unicode="\" horiz-adv-x="569" d="M-123 1372h103l712 -1413h-102z" />
<glyph unicode="]" d="M-260 -377l18 62h373l555 1626h-373l25 61h541l-598 -1749h-541z" />
<glyph unicode="^" horiz-adv-x="1024" d="M131 584l377 747h94l377 -747h-113l-311 616l-311 -616h-113z" />
<glyph unicode="_" horiz-adv-x="1024" d="M0 -154h1024v-102h-1024v102z" />
<glyph unicode="`" horiz-adv-x="530" d="M141 1165q0 29 19.5 51.5t48.5 22.5q51 0 82 -45l219 -307h-64l-264 217q-23 18 -32 30.5t-9 30.5z" />
<glyph unicode="a" horiz-adv-x="948" d="M-43 141q0 76 33 154t85 150.5t118.5 136t132 110.5t126 75t101.5 28q35 0 60.5 -22.5t35.5 -55.5q18 35 29 65h135q-14 -27 -36.5 -84t-49.5 -128.5t-53.5 -146.5t-49 -139.5t-36 -109.5t-13.5 -55q0 -31 29 -44.5t55 -13.5q31 0 60 17.5t53.5 38t43 38t28.5 17.5 q12 0 12 -8q0 -6 -27.5 -37t-73.5 -64.5t-105.5 -60.5t-123.5 -27q-37 0 -77.5 21.5t-40.5 66.5q0 18 12 50t28.5 65t33 64.5t24.5 50.5l-4 4q-29 -45 -77 -101.5t-105.5 -105.5t-120 -82t-119.5 -33q-35 0 -58.5 15.5t-38 39t-20.5 53.5t-6 58zM117 160q0 -39 26.5 -62.5 t63.5 -23.5q47 0 92 28.5t85 70.5t70.5 90t47.5 85q6 16 23.5 53t33.5 77t29.5 75t13.5 45q0 25 -15.5 46.5t-38 37.5t-48 25.5t-45.5 9.5q-27 0 -44.5 -4t-29.5 -13.5t-22.5 -23.5t-26.5 -35q-35 -49 -73 -106.5t-69.5 -121t-52 -128t-20.5 -125.5z" />
<glyph unicode="b" horiz-adv-x="872" d="M-31 117q0 6 11.5 33.5t30 70.5t41 98.5t42.5 118.5q8 25 43 117t86 230.5t114.5 311.5t131.5 361h152q-45 -115 -90.5 -237.5t-90.5 -241.5t-88 -228.5t-84 -199.5l4 -4q29 37 70 80t89 80.5t100.5 62.5t101.5 25q63 0 102 -38t39 -104q0 -70 -27.5 -146.5t-75.5 -152 t-112.5 -144.5t-135.5 -121t-145.5 -83t-144.5 -31q-43 0 -73.5 17.5t-50 41t-30 47t-10.5 36.5zM139 129q0 -18 12.5 -34.5t31 -28t39 -18.5t36.5 -7q43 0 86 31.5t81 83t70.5 115t56 127t37 119.5t13.5 93q0 35 -18.5 69t-57.5 34q-47 0 -95 -33t-91 -85t-80 -117.5 t-63.5 -130t-42 -122t-15.5 -96.5z" />
<glyph unicode="c" horiz-adv-x="681" d="M-37 199q0 90 51.5 193.5t131 193.5t177 149.5t189.5 59.5q55 0 88 -38t33 -91q0 -45 -20.5 -84t-73.5 -39q-33 0 -53.5 17.5t-20.5 51.5q0 16 9 29.5t22 24.5q-10 35 -38 49t-63 14q-37 0 -70.5 -29.5t-62.5 -75.5t-52.5 -103.5t-39.5 -114t-25.5 -106.5t-9.5 -81 q0 -78 40 -120t118 -42q39 0 77 22.5t70.5 50.5t54 50.5t27.5 22.5t11.5 -2t5.5 -13q0 -12 -36 -47t-90.5 -71.5t-119 -65.5t-123.5 -29q-98 0 -152.5 65.5t-54.5 158.5z" />
<glyph unicode="d" horiz-adv-x="833" d="M-20 176q0 102 36.5 189.5t96 158t130 124.5t140.5 91t127 56.5t88 20.5q16 0 16 -13q0 -8 -15 -13.5t-50 -17.5q-80 -29 -153.5 -90t-130 -141t-91.5 -170t-35 -174q0 -25 3 -52.5t13.5 -50t30 -38t50.5 -15.5q70 0 130 64.5t111 165t92 224t69 241.5t43 217.5t15 150.5 q0 59 -11 117.5t-39 104.5t-74 75t-117 29q-86 0 -146.5 -33t-99.5 -73t-60.5 -73.5t-31.5 -33.5q-12 0 -13 12q0 8 25 45t72 78t115.5 73.5t156.5 32.5q96 0 166 -36t114 -97t65.5 -141t21.5 -168q0 -121 -32 -246t-84 -240.5t-122 -217t-146.5 -176.5t-154.5 -118 t-149 -43q-90 0 -131 58.5t-41 142.5z" />
<glyph unicode="e" horiz-adv-x="681" d="M-51 154q0 66 26.5 139.5t70.5 144t101.5 135t120 114.5t125 79t117.5 29q98 0 98 -99q0 -68 -52 -121t-125 -92t-150.5 -63.5t-128.5 -36.5q-16 -31 -27.5 -78t-11.5 -80q0 -72 33.5 -115.5t111.5 -43.5q45 0 81 13t66.5 33.5t57 45t51.5 45.5q10 8 16.5 16t10.5 8 q14 0 14 -8q0 -10 -37 -50t-96.5 -83t-134 -77t-152.5 -34q-86 0 -136 46.5t-50 132.5zM166 424q37 6 87 28.5t95 55.5t77 74t32 84q0 29 -18.5 38t-47.5 9q-39 0 -75.5 -34t-67.5 -80t-51.5 -95t-30.5 -80z" />
<glyph unicode="f" horiz-adv-x="569" d="M-365 -360q0 29 20.5 53t51.5 24q29 0 44.5 -14t24.5 -30.5t16 -31t20 -14.5q31 0 52 17.5t36.5 44t27 56.5t21.5 54q31 78 65.5 197t69.5 248t66.5 256t58.5 221h-174l6 49h182q10 45 36 112.5t62.5 144.5t83 153.5t97.5 138t104 100.5t105 39q23 0 38 -11t24 -28.5 t12 -37t3 -38.5q0 -25 -16 -59.5t-38.5 -71t-47 -69.5t-41.5 -49l-12 2q8 47 18.5 93t10.5 93q0 25 -10.5 51.5t-37.5 26.5q-37 0 -65.5 -38t-52 -96.5t-41 -130t-31.5 -137t-25.5 -116.5t-21.5 -72h194l-10 -49h-196q-18 -63 -49 -174t-75 -240t-98.5 -261t-120 -239.5 t-139 -176t-155.5 -68.5q-39 0 -66 19.5t-27 58.5z" />
<glyph unicode="g" horiz-adv-x="872" d="M-246 -348q0 39 22.5 69.5t63.5 30.5q47 0 76 -23.5t29 -74.5q0 -16 -2 -34.5t-4 -35.5q6 -12 31.5 -17t37.5 -5q66 0 122 40t104.5 103.5t87 142t71.5 157.5t58.5 148.5t46.5 112.5l-4 4q-20 -45 -62.5 -97t-94.5 -96t-109.5 -73t-112.5 -29q-70 0 -102.5 43t-32.5 109 q0 74 28.5 151.5t75.5 151.5t108.5 140.5t127 116.5t132 79t121.5 29q33 0 56.5 -12.5t50.5 -20.5l143 51q-43 -109 -88 -245t-94 -274t-103.5 -266t-117.5 -218q-43 -61 -97.5 -113.5t-117 -91.5t-133 -61.5t-148.5 -22.5q-29 0 -59.5 8t-55 23.5t-40 40t-15.5 59.5z M139 174q0 -47 19.5 -77.5t72.5 -30.5q43 0 84 25.5t75 64.5t60.5 82t43.5 77q10 20 28.5 65.5t38 94.5t33.5 93t14 61q0 20 -15 35.5t-39 26.5t-50.5 16.5t-48.5 5.5q-55 0 -111.5 -64.5t-101.5 -152.5t-74 -178.5t-29 -143.5z" />
<glyph unicode="h" horiz-adv-x="948" d="M-18 0l514 1458h157q-92 -244 -190 -507t-193 -515l4 -4q33 53 78 115.5t100.5 118t119 92.5t133.5 37q74 0 113.5 -52.5t39.5 -124.5q0 -45 -19.5 -108.5t-52 -133t-78.5 -138t-98.5 -124t-111 -89t-115.5 -33.5q-41 0 -61.5 16.5t-20.5 57.5q0 27 22.5 58.5t57.5 63 t77 62.5t82 56.5t72.5 45t49.5 29.5q18 47 27 107.5t9 111.5q0 41 -17 66.5t-63 25.5q-57 0 -113 -34.5t-106.5 -91t-94.5 -129t-80 -149.5t-62.5 -152t-40.5 -136h-139zM440 111q0 -16 13.5 -30.5t29.5 -14.5q29 0 54.5 32.5t47 77.5t38 91t26.5 73q-25 -12 -60.5 -38 t-68.5 -58.5t-56.5 -68.5t-23.5 -64z" />
<glyph unicode="i" horiz-adv-x="530" d="M2 94q0 14 19.5 68.5t52 144.5t78 213t96.5 275h158q-16 -57 -55.5 -149.5t-78.5 -190t-68.5 -184.5t-29.5 -134q0 -31 27.5 -49t56.5 -18q41 0 77 22.5t65.5 50t51 50t29.5 22.5q10 0 11 -12q0 -10 -32 -47t-81 -77t-108.5 -72t-114.5 -32q-25 0 -51.5 7.5t-50 22.5 t-38 38t-14.5 51zM389 1247q0 45 28.5 79t69.5 34q45 0 70 -20.5t25 -67.5q0 -45 -29 -79t-70 -34q-45 0 -69.5 20.5t-24.5 67.5z" />
<glyph unicode="j" horiz-adv-x="493" d="M-391 -395q0 35 20.5 59.5t55.5 24.5t49 -12.5t22 -28t16.5 -27.5t28.5 -12q16 0 36 17.5t38.5 42t32.5 48t20 35.5q18 39 46 116t58.5 174t63.5 205.5t61.5 210t53.5 186.5t39 134h153q-33 -106 -72.5 -240.5t-85.5 -272.5t-100.5 -268t-117.5 -224q-25 -39 -60 -83 t-74.5 -81t-84 -61.5t-91.5 -24.5q-45 0 -76.5 20.5t-31.5 61.5zM410 1247q0 45 28.5 79t69.5 34q45 0 69.5 -20.5t24.5 -67.5q0 -45 -28.5 -79t-69.5 -34q-45 0 -69.5 20.5t-24.5 67.5z" />
<glyph unicode="k" horiz-adv-x="985" d="M-37 0l510 1458h154q-92 -248 -181.5 -491.5t-187.5 -483.5l4 -4q41 37 94.5 90.5t114.5 103.5t124.5 86t121.5 36q86 0 115.5 -33t29.5 -94q0 -16 -1 -34t-3 -36l-123 -23q-4 29 -8 52.5t-13 40t-27.5 27t-51.5 10.5t-65.5 -14.5t-64.5 -36t-61.5 -45t-54.5 -42.5 q20 -57 53 -148t79 -179t106.5 -151.5t134.5 -63.5q45 0 73.5 15t34.5 15q8 0 9 -12q0 -8 -22.5 -20.5t-55.5 -22.5t-71 -17.5t-66 -7.5q-92 0 -151.5 49.5t-101.5 124t-70 160.5t-54 160l-37 -29q-37 -117 -78 -223t-70 -217h-139z" />
<glyph unicode="l" horiz-adv-x="530" d="M2 96q0 10 19.5 70.5t52 157t78 224.5t95.5 275.5t103 309t105 325.5h153q-12 -35 -36.5 -106.5t-58.5 -166.5t-73 -205t-77.5 -221.5t-75.5 -216t-64.5 -190.5t-44 -144t-16.5 -77q0 -18 10 -29.5t25.5 -17.5t33 -8t29.5 -2q37 0 74 17.5t66.5 38t49 37.5t21.5 17 q10 0 10 -10q0 -6 -34.5 -39t-87 -67.5t-111 -63.5t-107.5 -29q-51 0 -95 33t-44 88z" />
<glyph unicode="m" horiz-adv-x="1478" d="M-29 0l252 770h152l-133 -358l4 -4q41 63 85 131.5t97 125t120.5 93.5t153.5 37q51 0 81 -33t30 -84q0 -23 -14.5 -68t-34 -95t-38.5 -97t-28 -72l4 -4q43 70 88.5 149.5t100.5 147.5t127 112t168 44q47 0 85 -33t38 -84q0 -23 -14.5 -68t-37 -99t-47 -113.5t-47 -110.5 t-37 -90t-14.5 -54q0 -43 19.5 -56t58.5 -13q31 0 61.5 20.5t58 46t47 46t25.5 20.5q4 0 9.5 -3t5.5 -9q0 -4 -28 -36t-72 -69t-100 -67.5t-114 -30.5q-47 0 -90 29.5t-43 80.5q0 16 14.5 56.5t37 93.5t48 112.5t48 115t37 99.5t14.5 66q0 29 -20.5 48.5t-49.5 19.5 q-55 0 -109.5 -40t-103.5 -104.5t-93 -144.5t-80 -159t-62.5 -149.5t-40.5 -115.5h-144q12 53 46 141t70 183.5t63.5 180.5t27.5 130q0 78 -80 78q-49 0 -101 -43t-101 -110.5t-93.5 -149.5t-80 -162t-60 -146.5t-33.5 -101.5h-133z" />
<glyph unicode="n" horiz-adv-x="985" d="M-29 0q59 195 124 385t130 385h156l-143 -389l4 -4q29 55 76 126.5t105 136.5t125.5 110t137.5 45q27 0 53.5 -7.5t48 -20.5t35 -35.5t13.5 -53.5q0 -25 -14.5 -70t-37 -98t-48 -111.5t-48 -110.5t-37 -94t-14.5 -63q0 -29 20.5 -45t47.5 -16q29 0 53 11t44.5 24.5 t35 24.5t22.5 11q4 0 8 -3t4 -9t-26.5 -28.5t-67.5 -47t-90 -43t-92 -18.5q-47 0 -89 21.5t-42 74.5q0 25 14.5 68t37 95t48 109.5t48 109.5t37 96t14.5 69q0 70 -74 70q-47 0 -96.5 -36t-96.5 -95.5t-92 -134t-83 -152.5t-66.5 -153t-46.5 -134h-138z" />
<glyph unicode="o" horiz-adv-x="796" d="M-39 164q0 68 27.5 141.5t74 144t105.5 133t122.5 109.5t127 75t114.5 28q53 0 87 -14.5t54.5 -39t28 -59.5t7.5 -76q0 -68 -23.5 -141.5t-65.5 -144t-97.5 -133t-119 -109.5t-132 -75t-134.5 -28q-53 0 -87 14.5t-54.5 39t-27.5 59.5t-7 76zM121 141q0 -116 113 -116h2 q47 0 89 33.5t76.5 88t61 121t46 132t30 122t10.5 90.5q0 117 -115 117q-47 0 -89 -33.5t-77 -88t-61.5 -121t-46 -132t-29.5 -122t-10 -91.5z" />
<glyph unicode="p" horiz-adv-x="872" d="M-203 -479q35 94 86 240.5t110.5 315.5t122 347t120.5 334h143q-20 -49 -40 -97.5t-40 -95.5l4 -4q27 41 56.5 83t65.5 76t79 54.5t98 20.5q88 0 130 -60.5t42 -140.5q0 -68 -26.5 -140.5t-69.5 -141t-99.5 -130t-118 -107.5t-121.5 -73t-112 -27q-35 0 -59.5 9.5 t-56.5 19.5l-168 -483h-146zM170 164q0 -53 40 -92t93 -39q45 0 86 32.5t75 85t62.5 117t48 128t29.5 117.5t10 87q0 109 -112 109q-45 0 -88 -36t-80 -92.5t-66.5 -123t-51 -127t-34 -106.5t-12.5 -60z" />
<glyph unicode="q" horiz-adv-x="872" d="M-20 125q0 72 27.5 148.5t75.5 151.5t112.5 141.5t136 117.5t147.5 81t148 30q45 0 91 -18.5t81 -47.5q-106 -305 -219 -602t-215 -606h-150q66 178 132.5 353t137.5 349l-4 4q-25 -37 -67.5 -81t-93 -81.5t-104.5 -63.5t-103 -26q-70 0 -101.5 42t-31.5 108zM139 168 q0 -47 23.5 -77t73.5 -30q31 0 62.5 17.5t63 45.5t60.5 63.5t53 72.5q39 57 72 158.5t80 230.5q-16 35 -53 61.5t-76 26.5q-43 0 -86 -31.5t-83 -83t-75 -115t-60.5 -127t-40 -119.5t-14.5 -93z" />
<glyph unicode="r" horiz-adv-x="720" d="M-29 0l252 770h152l-113 -297l4 -4q25 43 57.5 98.5t74.5 106.5t91.5 86t106.5 35t93 -34t36 -93q0 -20 -5 -45t-17.5 -44.5t-31 -33t-44.5 -13.5q-35 0 -56.5 20.5t-21.5 55.5q0 18 7 34.5t17 33.5q-14 14 -34.5 17t-38.5 3q-43 0 -86 -42t-83 -107.5t-75 -146.5 t-64.5 -158.5t-50 -142t-30.5 -99.5h-140z" />
<glyph unicode="s" horiz-adv-x="720" d="M-92 164q0 29 5 61.5t19.5 62t37 49t59.5 19.5q29 0 43 -10t32 -29q104 96 184.5 179.5t136.5 149t94 111.5t61 68q6 6 15 15.5t13 9.5t9.5 -3t5.5 -16q0 -2 -6.5 -17t-15.5 -34.5t-18.5 -42t-15.5 -41.5q-12 -41 -13 -104.5t-7 -142.5q-6 -88 -55.5 -174.5t-117 -152 t-143 -106.5t-135.5 -41q-90 0 -139 49.5t-49 139.5zM27 172q0 -139 133 -139q47 0 85 19.5t65.5 52t45 76.5t23.5 91q10 74 13 150t11 151l-292 -280q2 -4 3 -9t1 -16q0 -35 -27 -59.5t-61 -36.5z" />
<glyph unicode="t" horiz-adv-x="606" d="M2 92q0 4 14.5 51t40 122t57 172.5t67.5 202.5t72 214t69 207l157 39l-112 -330h260l-13 -49h-264q-12 -47 -43 -135t-62.5 -181.5t-55 -171t-23.5 -104.5q0 -72 67 -72q37 0 70 16.5t59.5 35t44 35t19.5 16.5q12 0 12 -13q0 -8 -30.5 -36.5t-76.5 -58t-99.5 -53.5 t-96.5 -24q-53 0 -93 30t-40 87z" />
<glyph unicode="u" horiz-adv-x="985" d="M-6 78q0 43 27.5 125t66.5 180t81 200.5t71 186.5h151q-18 -51 -56 -142t-76 -186.5t-65.5 -177.5t-27.5 -117q0 -41 19.5 -57t56.5 -16q31 0 67.5 20.5t73.5 54t71.5 75.5t61.5 85q68 109 112 225.5t91 235.5h151q-10 -25 -30.5 -78t-47 -118.5t-54 -138.5t-50 -137.5 t-37 -114.5t-14.5 -70q0 -35 21.5 -45.5t52.5 -10.5t65.5 19.5t63 44t48 44t21.5 19.5q10 0 11 -10q0 -2 -27 -33.5t-71 -68.5t-104.5 -67t-127.5 -30q-18 0 -39 6.5t-38 17.5t-29.5 27.5t-12.5 36.5q0 12 14.5 54.5t33 91.5t35.5 93t24 58l-5 5q-23 -53 -75 -121 t-117.5 -127.5t-136 -100.5t-131.5 -41q-51 0 -85 25t-34 78z" />
<glyph unicode="v" horiz-adv-x="757" d="M78 424q0 80 28.5 148.5t66.5 117.5t76 77t58 28q14 0 15 -15q0 -10 -17.5 -22.5t-37 -38t-37 -72.5t-17.5 -127q0 -96 19.5 -190t29.5 -189q49 43 98.5 84t90.5 89t66.5 104.5t25.5 126.5q0 47 -14.5 92t-14.5 92q0 29 21.5 49.5t48.5 20.5q63 0 86.5 -40t23.5 -124 q0 -43 -23.5 -92t-59.5 -97.5t-77.5 -93.5t-79.5 -79.5t-66 -58.5t-34 -30q-76 -68 -121 -111.5t-69.5 -69.5t-33.5 -35t-13 -9q-14 0 -15 25q0 12 2 25.5t2 23.5q0 68 -4 121t-10 99t-10 87t-4 84z" />
<glyph unicode="w" horiz-adv-x="1138" d="M90 436q0 86 32 152.5t71.5 113t76.5 70t45 23.5q14 0 15 -15q0 -12 -17.5 -22t-37 -33t-37 -69t-17.5 -132q0 -33 5 -85t13.5 -107.5t15.5 -107.5t13 -87l191 187q-4 23 -4 53v59q0 86 31.5 153.5t71.5 115t77 73t49 25.5q14 0 14 -10t-17 -22.5t-38.5 -38t-39 -73 t-17.5 -127.5q0 -96 18.5 -191t22.5 -196q53 41 105 85t94 95.5t68 109t26 122.5q0 47 -17.5 90t-17.5 74q0 37 24.5 59.5t51.5 22.5q16 0 35.5 -9.5t36 -27.5t27.5 -48t11 -71q0 -61 -44 -131t-110.5 -141.5t-143.5 -139t-142 -124.5q-27 -25 -50.5 -51.5t-41 -49 t-30.5 -37t-22 -14.5q-10 0 -10 16q0 27 3 60t3 53q-2 51 -7 102.5t-9 98.5q-98 -82 -161.5 -143.5t-102.5 -102.5t-57.5 -62.5t-24.5 -21.5q-10 0 -10 16q0 27 3 60t3 53q0 88 -13.5 174t-13.5 174z" />
<glyph unicode="x" horiz-adv-x="1062" d="M-84 152q0 23 7 48t21.5 46.5t36 36t48.5 14.5q35 0 60.5 -21.5t25.5 -62.5q0 -25 -13.5 -40t-35.5 -26q-2 -8 -3 -16v-12q0 -35 24 -52.5t60 -17.5q45 0 89.5 31t84 76t71.5 93t50 83q-18 131 -36.5 203.5t-42 108.5t-52 44t-67.5 8q-41 0 -69 -17t-46 -39t-29.5 -39 t-19.5 -17t-8 14q0 12 24.5 45t64.5 66.5t91 59.5t102 26q41 0 69 -7.5t48.5 -35t34.5 -82t29 -146.5h4q18 41 46.5 89.5t67.5 88t84 66.5t97 27q66 0 100.5 -35t34.5 -101q0 -41 -19.5 -79.5t-66.5 -38.5q-35 0 -56.5 20.5t-21.5 54.5q0 23 11 45.5t22 40.5q-16 8 -33 13.5 t-37 5.5q-47 0 -87 -33t-69.5 -75t-47 -78.5t-19.5 -47.5q18 -137 38.5 -219t43 -125t48 -56t54.5 -13q39 0 70.5 17.5t55.5 36.5t39 36.5t21 17.5q14 0 15 -12q0 -6 -26.5 -37t-68.5 -65.5t-91.5 -63.5t-96.5 -29q-45 0 -74.5 7.5t-51 39t-37 96t-33.5 179.5 q-25 -43 -67 -98.5t-93 -104.5t-107.5 -84t-111.5 -35q-76 0 -116 52.5t-40 124.5z" />
<glyph unicode="y" d="M-121 -311q0 45 29 65.5t69 20.5q43 0 60.5 -22.5t29 -49.5t27 -49.5t53.5 -22.5q55 0 96.5 26t70 65.5t51 87t41.5 90.5q35 80 67.5 160.5t67.5 160.5l-4 4q-16 -23 -44 -60.5t-62 -74.5t-69.5 -63.5t-66.5 -26.5q-61 0 -85 27.5t-24 109.5q0 111 5.5 197t5.5 180 q0 61 -3.5 96t-13.5 53.5t-27.5 23.5t-48.5 5q-27 0 -48 -13t-37.5 -29.5t-29 -30t-20.5 -13.5q-6 0 -6 6q0 10 23.5 39t60.5 61.5t82 57.5t88 25q68 0 95.5 -27t27.5 -88q0 -31 -9 -136.5t-9 -271.5q0 -47 2 -75.5t10 -45t21.5 -22.5t35.5 -6q37 0 74 40t70.5 102.5 t64.5 138t56.5 147.5t46 131t32.5 88h148q-53 -117 -96.5 -239.5t-88.5 -244.5t-98 -241t-129 -227q-31 -45 -79 -91t-103.5 -83t-115.5 -59.5t-118 -22.5q-29 0 -59.5 7t-57 22.5t-43 39t-16.5 58.5z" />
<glyph unicode="z" horiz-adv-x="833" d="M-104 29q0 12 18 29.5t43 35t50.5 33.5t41.5 29q88 61 180.5 141t169 150.5t129 120.5t60.5 55l-4 4q-27 -6 -62 -6q-25 0 -50.5 4t-51.5 10q-29 4 -55.5 8t-55.5 4q-63 0 -111 -28.5t-82 -64.5t-54 -64.5t-27 -28.5q-6 0 -7 4t-1 8q0 8 37.5 55t93 101.5t119 97.5 t116.5 43q39 0 72 -9t61 -20q29 -12 54.5 -21t50.5 -9q18 0 36.5 13t35 28.5t31 29t28.5 13.5q10 0 22.5 -7.5t12.5 -31.5q0 -12 -14.5 -27.5t-33 -30t-36 -27t-23.5 -16.5q-129 -86 -240.5 -195.5t-226.5 -215.5q49 -6 89 -32t80 -52.5t82 -48t93 -21.5q39 0 77 21.5 t69.5 47t53 47t26.5 21.5q8 0 8 -12q0 -6 -32 -41t-81 -76t-109.5 -73.5t-117.5 -32.5q-59 0 -103.5 25.5t-81.5 54.5q-37 31 -68.5 55.5t-66.5 24.5q-39 0 -54 -25t-25 -55.5t-26 -55t-52 -24.5q-39 0 -63.5 9t-24.5 28z" />
<glyph unicode="{" d="M139 -252q0 41 9.5 70.5t19.5 62.5l129 375q29 80 29 127q0 80 -95 113q49 14 85 34.5t61.5 49t44 66.5t37.5 89l129 375q33 94 71.5 152.5t87 90t106.5 42t128 10.5l-8 -25q-82 -23 -133.5 -85t-87.5 -173l-121 -354q-18 -55 -40 -99t-50.5 -78t-70.5 -56.5t-101 -36.5 v-4q59 -16 83.5 -45t24.5 -72q0 -61 -33 -154l-120 -354q-12 -35 -22.5 -64.5t-10.5 -70.5q0 -96 78 -123l-9 -25q-49 0 -90 6.5t-70.5 22.5t-45 48t-15.5 85z" />
<glyph unicode="|" horiz-adv-x="454" d="M176 0v1458h103v-1458h-103z" />
<glyph unicode="}" d="M-96 -414l8 25q82 23 133 85t88 173l121 354q18 55 39.5 99.5t50.5 78t71 56t101 37.5v4q-59 16 -83.5 44.5t-24.5 71.5q0 61 32 154l121 354q12 35 22.5 65t10.5 70q0 96 -78 123l8 25q49 0 90 -6t71 -22.5t45 -48.5t15 -85q0 -41 -9 -70.5t-19 -62.5l-129 -375 q-29 -80 -29 -127q0 -80 94 -112q-49 -14 -85 -35t-61.5 -49.5t-44 -66.5t-36.5 -89l-129 -375q-33 -94 -72 -152.5t-87 -90t-106.5 -42t-127.5 -10.5z" />
<glyph unicode="~" horiz-adv-x="1024" d="M0 330q16 33 39.5 64.5t54.5 56t71 40t91 15.5q53 0 110.5 -19.5t116.5 -46.5q57 -25 112.5 -49t96.5 -24q31 0 56.5 13t47 33.5t40 47t36.5 53.5l74 -74q-23 -33 -48.5 -64.5t-55 -56t-67.5 -40t-85 -15.5q-57 0 -107.5 19.5t-101.5 48.5q-49 29 -106.5 50t-128.5 21 q-33 0 -59.5 -13t-48 -33.5t-37 -47t-27.5 -53.5z" />
<glyph horiz-adv-x="0" />
<glyph unicode="&#xa1;" horiz-adv-x="681" d="M-25 -438q6 94 37 181t74 169t91 161t92 160.5t79 166.5t47 180h21q-6 -133 -44 -258t-83 -250t-85 -251t-52 -259h-177zM338 745q0 59 34 103.5t91 44.5q43 0 69.5 -28.5t26.5 -78.5q0 -59 -34 -103t-91 -44q-43 0 -69.5 28.5t-26.5 77.5z" />
<glyph unicode="&#xa2;" d="M39 256q0 98 40 186t106.5 158t152.5 118t178 66l66 191l59 -14l-59 -166q33 -2 68.5 -11.5t66.5 -29t50 -49t19 -72.5q0 -39 -20.5 -77t-67.5 -38q-35 0 -57.5 14.5t-22.5 53.5q0 41 39 61q-10 45 -36.5 61.5t-61.5 20.5l-227 -655q18 -8 63 -8q76 0 130.5 25.5t92 56 t60 56t35.5 25.5q14 0 14 -14t-38 -50t-96 -75t-127 -68.5t-130 -29.5q-23 0 -33 2l-63 -184l-54 16l60 174q-51 2 -89 24.5t-64.5 59.5t-40 82t-13.5 90zM195 268q0 -53 18 -104t66 -74l221 647q-82 0 -140.5 -50t-95.5 -122.5t-53 -153.5t-16 -143z" />
<glyph unicode="&#xa3;" d="M-121 31v4q94 49 163 111.5t117 140.5t77.5 169t44.5 195h-158l14 49h154q10 70 25.5 148t41 151.5t61.5 140t87 118t119.5 81t158.5 29.5q98 0 161 -49t63 -156q0 -27 -8.5 -52.5t-21.5 -44.5t-31.5 -31.5t-37.5 -12.5q-37 0 -64.5 19.5t-27.5 60.5q0 35 23.5 54.5 t56.5 23.5q4 68 -24.5 111.5t-106.5 43.5q-57 0 -101 -35.5t-78 -92t-58.5 -127t-42 -141.5t-29 -133.5t-19.5 -105.5h264l-14 -49h-260q-33 -166 -131 -301t-240 -225l4 -6h457q47 0 83 15.5t65.5 41t56.5 57t55 64.5l17 -12q-88 -139 -160 -293q-113 4 -225.5 6t-225.5 2 q-74 0 -148.5 -2t-148.5 -8h-4z" />
<glyph unicode="&#xa4;" d="M63 309l93 97q-47 59 -70 123.5t-23 136.5q0 70 20.5 138t74.5 122l-95 96l66 65l94 -92q55 47 125 69.5t137 22.5q72 0 139.5 -22.5t123.5 -69.5l94 92l65 -65l-92 -90q49 -57 70.5 -126t21.5 -140q0 -70 -21.5 -136.5t-68.5 -126.5l90 -94l-65 -65l-88 98 q-59 -51 -128 -74.5t-141 -23.5t-140.5 22.5t-127.5 75.5l-88 -98zM174 666q0 -61 24.5 -120t66.5 -103t99.5 -70.5t120.5 -26.5q66 0 122.5 26.5t98.5 70.5t66.5 102.5t24.5 120.5q0 61 -24.5 119.5t-66.5 102.5t-98.5 70.5t-122.5 26.5t-122 -26.5t-98 -70.5t-66.5 -102.5 t-24.5 -119.5z" />
<glyph unicode="&#xa5;" d="M88 -8v28q41 8 75 14.5t59.5 17.5t44 29.5t26.5 51.5l92 318h-268l12 49h268l37 141l-8 47h-274l12 49h254q-12 61 -26.5 133t-30 140.5t-34 129t-38.5 97.5q-8 14 -28.5 26.5t-45.5 22.5t-47.5 16.5t-32.5 8.5v28q55 -4 109.5 -6t113.5 -2q57 0 114.5 2t115.5 6v-28 q-16 -6 -40 -9.5t-46.5 -10.5t-37.5 -23.5t-15 -46.5q0 -18 13 -85t30.5 -149l35 -164t27.5 -131q14 20 45 63.5t69 98.5t77.5 115.5t73.5 113t55.5 91t21.5 49.5q0 20 -22.5 35.5t-50 25.5t-54.5 17.5t-37 9.5v28q55 -2 108.5 -5t106.5 -3q41 0 82 3t82 5v-28 q-61 -57 -125.5 -128t-126 -146.5t-119 -152.5t-106.5 -147h246l-13 -49h-268l-35 -47l-35 -141h316l-12 -49h-316l-65 -269q-4 -16 -6.5 -30.5t-2.5 -30.5q0 -31 27 -48.5t62.5 -26.5t71.5 -14t54 -12v-28q-74 4 -148.5 6t-152.5 2q-68 0 -136 -2t-134 -6z" />
<glyph unicode="&#xa6;" horiz-adv-x="454" d="M176 0v563h103v-563h-103zM176 895v563h103v-563h-103z" />
<glyph unicode="&#xa7;" horiz-adv-x="1024" d="M10 -106q0 49 29 83.5t82 34.5q47 0 70.5 -25.5t23.5 -68.5q0 -31 -14.5 -51.5t-31.5 -34.5t-31.5 -23.5t-14.5 -19.5q0 -25 19.5 -40t46 -22.5t54 -10.5t44.5 -3q39 0 77.5 15.5t69.5 41t49.5 61.5t18.5 79q0 70 -51.5 145.5t-113 157.5t-112.5 170t-51 184 q0 61 15.5 113.5t46 90.5t76.5 60.5t110 22.5q35 0 63.5 -5t57.5 -15l4 4q-41 51 -71 110.5t-30 128.5q0 76 24 131.5t67 92t103 54t132 17.5q43 0 90 -10t86 -32.5t63.5 -58.5t24.5 -89q0 -55 -31.5 -91t-89.5 -36q-41 0 -62.5 25.5t-21.5 64.5q0 29 12.5 47t26 31.5 t25.5 23.5t12 21q0 20 -14 32.5t-33.5 19.5t-41.5 9t-36 2q-86 0 -149.5 -50t-63.5 -142q0 -74 51.5 -147.5t113 -150.5t112.5 -159t51 -172q0 -135 -69.5 -219t-209.5 -84q-20 0 -46.5 3t-43.5 13h4l-4 -4q35 -41 66 -105.5t31 -121.5q0 -80 -27 -140.5t-73 -100.5 t-109.5 -59.5t-136.5 -19.5q-49 0 -97.5 13.5t-86.5 41t-61.5 69.5t-23.5 98zM305 657q0 -43 27.5 -110.5t70.5 -132t96.5 -111.5t102.5 -47q37 0 67.5 14.5t52 36t33 47t11.5 49.5q0 43 -27.5 111t-70.5 132.5t-96.5 111.5t-102.5 47q-37 0 -66.5 -13.5t-51 -35t-34 -48 t-12.5 -51.5z" />
<glyph unicode="&#xa8;" horiz-adv-x="530" d="M139 1024q0 39 30 67.5t71 28.5q37 0 68.5 -28.5t31.5 -75.5q0 -39 -29.5 -67.5t-70.5 -28.5q-37 0 -69 28.5t-32 75.5zM502 1024q0 39 29.5 67.5t70.5 28.5q37 0 68.5 -28.5t31.5 -75.5q0 -39 -29.5 -67.5t-70.5 -28.5q-37 0 -68.5 28.5t-31.5 75.5z" />
<glyph unicode="&#xa9;" horiz-adv-x="1638" d="M129 664q0 147 53.5 276t147.5 225.5t220 151.5t269 55q145 0 271.5 -55t219.5 -151.5t146 -225.5t53 -276t-53 -275.5t-146 -223.5t-219.5 -150.5t-271.5 -55.5q-143 0 -269 55.5t-220 150.5t-147.5 223t-53.5 276zM240 664q0 -123 46 -235t124.5 -198t184 -136 t224.5 -50q121 0 226.5 50t183.5 136t124 198t46 235q0 125 -45 237.5t-124 198.5t-184.5 136t-226.5 50q-119 0 -225.5 -51t-184 -137t-123.5 -199t-46 -235zM432 684q0 63 25.5 132t79 127t137.5 96t200 38q78 0 124 -11t87 -26q45 -14 45 -43v-143h-36q-2 33 -15.5 65.5 t-40 58.5t-68.5 42t-102 16q-72 0 -126 -25.5t-90 -71.5t-54 -109.5t-18 -139.5q0 -80 17 -148.5t54 -117.5t94.5 -78t135.5 -29q51 0 90 14.5t69.5 39t52 56.5t35.5 67h33l-31 -142q-2 -18 -16 -25.5t-39 -15.5q-29 -10 -86 -22.5t-129 -12.5q-88 0 -166 24t-136 73 t-92 125.5t-34 185.5z" />
<glyph unicode="&#xaa;" horiz-adv-x="569" d="M123 963q0 72 48 143.5t114.5 129.5t135 95t109.5 37q51 0 62 -51h4q4 10 9 21.5t9 21.5h91q-8 -16 -23.5 -52t-33 -79t-36 -90t-34 -87t-24.5 -69t-9 -35q0 -18 19.5 -25.5t35.5 -7.5q20 0 39.5 10.5t37 23t30 22.5t20.5 10t8 -4t-18.5 -22.5t-50 -40t-71.5 -38 t-83 -16.5q-27 0 -54.5 13.5t-27.5 41.5q0 12 8 31t19.5 40.5t23 39.5t17.5 31l-4 2q-18 -27 -51 -61.5t-72 -65.5t-81 -51.5t-81 -20.5q-47 0 -66.5 34t-19.5 69zM246 993q0 -23 16.5 -35t38.5 -12q29 0 56.5 16.5t52 40t43 51t28.5 48.5q4 8 15.5 29.5t21.5 44t18.5 42 t8.5 25.5q0 29 -34 48.5t-58 19.5q-33 0 -45.5 -9.5t-30.5 -31.5q-20 -27 -44 -60.5t-43.5 -69.5t-31.5 -74t-12 -73z" />
<glyph unicode="&#xab;" d="M147 412q0 16 28 39.5t77 57.5t116.5 80t147.5 103l25 -20l-271 -277q20 -76 49 -146.5t60 -142.5l-31 -28q-37 61 -72.5 115.5t-64.5 97.5t-46.5 73.5t-17.5 47.5zM430 412q0 16 27.5 39.5t77 57.5t117 80t147.5 103l24 -20l-270 -277q20 -76 49 -146.5t60 -142.5 l-31 -28q-37 61 -73 115.5t-64.5 97.5t-46 73.5t-17.5 47.5z" />
<glyph unicode="&#xac;" horiz-adv-x="1024" d="M90 479v103h766v-412h-102v309h-664z" />
<glyph unicode="&#xad;" horiz-adv-x="681" d="M51 299q10 29 23.5 62.5t23.5 70.5q2 6 33 12.5t55 6.5q47 0 93.5 -7.5t93.5 -7.5q51 0 76.5 2t42 6.5t31 8.5t40.5 8l-57 -139q-37 -6 -76 -7q-55 0 -110.5 9.5t-110.5 9.5q-47 0 -82 -7.5t-76 -27.5z" />
<glyph unicode="&#xae;" horiz-adv-x="1638" d="M129 664q0 147 53.5 276t147.5 225.5t220 151.5t269 55q145 0 271.5 -55t219.5 -151.5t146 -225.5t53 -276t-53 -275.5t-146 -223.5t-219.5 -150.5t-271.5 -55.5q-143 0 -269 55.5t-220 150.5t-147.5 223t-53.5 276zM240 664q0 -123 46 -235t124.5 -198t184 -136 t224.5 -50q121 0 226.5 50t183.5 136t124 198t46 235q0 125 -45 237.5t-124 198.5t-184.5 136t-226.5 50q-119 0 -225.5 -51t-184 -137t-123.5 -199t-46 -235zM489 299v33q37 4 57.5 7t30 12t11.5 28.5t2 52.5v490q0 35 -2 53t-11.5 27.5t-30 12.5t-57.5 5v35h363 q45 0 88 -11.5t76 -35t53.5 -58.5t20.5 -84q0 -78 -47.5 -134t-118.5 -81l118 -162q41 -55 84 -103t72 -71v-16h-131q-25 0 -48.5 24.5t-51 68.5t-63.5 105.5t-85 133.5h-98v-199q0 -33 1 -52.5t10 -28.5t29.5 -12t59.5 -7v-33h-332zM721 672h88q76 0 108.5 51t32.5 133 q0 90 -43 124t-102 34h-84v-342z" />
<glyph unicode="&#xaf;" horiz-adv-x="530" d="M131 969l21 98h553l-25 -98h-549z" />
<glyph unicode="&#xb0;" horiz-adv-x="819" d="M268 1075q0 61 22.5 114.5t62.5 93.5t93.5 62.5t114.5 22.5t114.5 -22.5t93.5 -62.5t62.5 -93t22.5 -115q0 -61 -22.5 -114.5t-62.5 -93.5t-93.5 -62.5t-114.5 -22.5t-114.5 22.5t-93.5 62.5t-62.5 93.5t-22.5 114.5zM371 1075q0 -41 14 -77.5t40 -64.5t60.5 -44.5 t75.5 -16.5t76 16.5t60.5 44.5t40 64.5t14.5 77.5t-14.5 78t-40 64.5t-60.5 44t-76 16.5t-75.5 -16.5t-60.5 -44t-40 -64.5t-14 -78z" />
<glyph unicode="&#xb1;" horiz-adv-x="1024" d="M90 0v102h766v-102h-766zM90 432v103h332v235h102v-235h332v-103h-332v-237h-102v237h-332z" />
<glyph unicode="&#xb2;" horiz-adv-x="544" d="M-2 561v4q78 80 180.5 157t194.5 153.5t156.5 154.5t64.5 160q0 70 -21.5 109.5t-85.5 39.5q-39 0 -63.5 -26.5t-38.5 -59t-20.5 -62.5t-10.5 -36l-106 27q2 43 23.5 77.5t57.5 58t80 37t89 13.5q100 0 155.5 -50t55.5 -136q0 -66 -32 -121t-83 -101.5t-116.5 -87.5 t-132 -79.5t-128 -77.5t-106.5 -82h313q45 0 68.5 20.5t58.5 73.5l18 -10q-23 -41 -43 -83t-34 -87h-400q-43 0 -58.5 -1t-25.5 -3h-4z" />
<glyph unicode="&#xb3;" horiz-adv-x="544" d="M4 549q72 6 157 28.5t157.5 62.5t121.5 99.5t49 141.5q0 53 -31.5 90t-90.5 37q-20 0 -39 -8.5t-35 -18.5v12l366 262v5h-231q-59 0 -90 -28t-43 -42l-27 4l101 152h401l8 -33l-319 -236q80 -10 118.5 -65.5t38.5 -124.5q0 -92 -64.5 -157.5t-157.5 -108.5t-198.5 -67 t-189.5 -30z" />
<glyph unicode="&#xb4;" horiz-adv-x="530" d="M287 887l305 323q8 8 21.5 16.5t33.5 8.5q29 0 51.5 -22.5t22.5 -51.5q0 -35 -37 -59.5t-88 -59.5l-238 -155h-71z" />
<glyph unicode="&#xb6;" horiz-adv-x="1228" d="M262 -434l316 926q-166 0 -237 67.5t-71 183.5q0 135 46 245t126 185.5t190.5 116.5t239.5 41h492l-14 -45q-61 -4 -99.5 -10t-60 -18.5t-33.5 -35t-24 -59.5l-545 -1597h-103l582 1704h-121l-581 -1704h-103z" />
<glyph unicode="&#xb7;" horiz-adv-x="454" d="M68 385q0 47 34.5 81t79.5 34t80 -34t35 -81t-35 -81t-80 -34t-79.5 34t-34.5 81z" />
<glyph unicode="&#xb8;" horiz-adv-x="530" d="M-260 -403l33 55q25 -10 60.5 -21.5t62.5 -11.5q20 0 43.5 4t44 14.5t33 28t12.5 45.5q0 41 -29 66.5t-68 25.5q-16 0 -34.5 -7t-34.5 -11l-21 16l127 199h72l-88 -137q16 2 30.5 4t30.5 2q59 0 108.5 -34t49.5 -99q0 -51 -21.5 -86t-56.5 -56.5t-79 -30.5t-89 -9 q-18 0 -43.5 3t-51.5 9t-50.5 13t-40.5 18z" />
<glyph unicode="&#xb9;" horiz-adv-x="544" d="M72 543v20q66 10 93.5 18.5t43.5 45.5l225 577q10 29 17.5 45.5t7.5 20.5q0 16 -16.5 18t-39.5 2q-18 0 -36.5 -3t-36.5 -3v27q141 18 274 57l8 -8q-16 -41 -34.5 -79t-32.5 -77l-205 -536q-10 -23 -13 -42.5t-3 -21.5q0 -12 14 -18t33.5 -11.5t40 -7.5t32.5 -4v-20 q-51 4 -100 4h-96h-84t-92 -4z" />
<glyph unicode="&#xba;" horiz-adv-x="477" d="M168 977q0 63 40 132t99.5 126t126 95t117.5 38q72 0 95.5 -33t23.5 -84q0 -63 -35 -132.5t-90.5 -127t-124 -94.5t-133.5 -37q-72 0 -95.5 33t-23.5 84zM287 977q0 -68 71 -68q43 0 79 42t60.5 98.5t39 113t14.5 84.5q0 68 -72 68q-43 0 -78.5 -42t-60.5 -97.5 t-39 -111.5t-14 -87z" />
<glyph unicode="&#xbb;" d="M0 98l270 277q-20 76 -48.5 146.5t-59.5 142.5l31 28q37 -61 72.5 -115.5t64 -97.5t46 -73.5t17.5 -47.5q0 -16 -27.5 -39.5t-76.5 -57.5t-117 -79t-147 -104zM283 98l270 277q-20 76 -49 146.5t-60 142.5l31 28q37 -61 73 -115.5t64.5 -97.5t46 -73.5t17.5 -47.5 q0 -16 -27.5 -39.5t-77 -57.5t-117 -79t-147.5 -104z" />
<glyph unicode="&#xbc;" horiz-adv-x="1363" d="M72 543v20q66 10 93.5 18.5t43.5 45.5l225 577q10 29 17.5 45.5t7.5 20.5q0 16 -16.5 18t-39.5 2q-18 0 -36.5 -3t-36.5 -3v27q141 18 274 57l8 -8q-16 -41 -34.5 -79t-32.5 -77l-205 -536q-10 -23 -13 -42.5t-3 -21.5q0 -12 14 -18t33.5 -11.5t40 -7.5t32.5 -4v-20 q-51 4 -100 4h-96h-84t-92 -4zM193 -37l933 1405h93l-934 -1405h-92zM662 272v7q43 45 103 104t126.5 121.5t134.5 123t126 107.5t102 77t63 30q27 0 26 -15q0 -4 -4 -18l-9 -31.5t-9 -33t-6 -21.5q-57 0 -101.5 -15.5t-81 -40t-71.5 -54t-76 -58.5q-10 -6 -36.5 -30.5 t-60.5 -56.5t-67 -65.5t-55 -60.5h303l102 281l123 36l-241 -659h-115l104 272h-380z" />
<glyph unicode="&#xbd;" horiz-adv-x="1363" d="M72 543v20q66 10 93.5 18.5t43.5 45.5l225 577q10 29 17.5 45.5t7.5 20.5q0 16 -16.5 18t-39.5 2q-18 0 -36.5 -3t-36.5 -3v27q141 18 274 57l8 -8q-16 -41 -34.5 -79t-32.5 -77l-205 -536q-10 -23 -13 -42.5t-3 -21.5q0 -12 14 -18t33.5 -11.5t40 -7.5t32.5 -4v-20 q-51 4 -100 4h-96h-84t-92 -4zM162 -37l934 1405h92l-934 -1405h-92zM612 14v4q78 80 180.5 157t194.5 154t156.5 154.5t64.5 159.5q0 70 -21.5 110t-84.5 40q-39 0 -63.5 -27t-39 -59.5t-20.5 -62.5t-10 -36l-107 27q2 43 23.5 78t57.5 58.5t80 36.5t89 13q100 0 155.5 -50 t55.5 -136q0 -66 -31.5 -121t-83 -101t-117 -87t-132 -80t-128 -78t-106.5 -82h313q45 0 68.5 20.5t58.5 73.5l19 -10q-23 -41 -43.5 -83t-34.5 -87h-399q-43 0 -58.5 -1t-25.5 -3h-5z" />
<glyph unicode="&#xbe;" horiz-adv-x="1363" d="M4 549q72 6 157 28.5t157.5 62.5t121.5 99.5t49 141.5q0 53 -31.5 90t-90.5 37q-20 0 -39 -8.5t-35 -18.5v12l366 262v5h-231q-59 0 -90 -28t-43 -42l-27 4l101 152h401l8 -33l-319 -236q80 -10 118.5 -65.5t38.5 -124.5q0 -92 -64.5 -157.5t-157.5 -108.5t-198.5 -67 t-189.5 -30zM193 -37l933 1405h93l-934 -1405h-92zM662 272v7q43 45 103 104t126.5 121.5t134.5 123t126 107.5t102 77t63 30q27 0 26 -15q0 -4 -4 -18l-9 -31.5t-9 -33t-6 -21.5q-57 0 -101.5 -15.5t-81 -40t-71.5 -54t-76 -58.5q-10 -6 -36.5 -30.5t-60.5 -56.5t-67 -65.5 t-55 -60.5h303l102 281l123 36l-241 -659h-115l104 272h-380z" />
<glyph unicode="&#xbf;" horiz-adv-x="796" d="M-8 -236q0 78 30.5 142.5t79 124t107.5 117t115.5 120t104.5 135t73 160.5h20q-6 -88 -38.5 -171t-77 -160.5t-94.5 -151.5t-92 -143.5t-69.5 -134t-27.5 -126.5q0 -18 4 -38.5t14.5 -39t27.5 -29.5t42 -11q37 0 64.5 19.5t49 48t39 62t31.5 64.5q12 0 29.5 -11t33 -26.5 t27 -33t11.5 -29.5q0 -25 -30 -48.5t-70 -42t-83 -29.5t-69 -11q-53 0 -99.5 17.5t-80 50t-53 77.5t-19.5 98zM457 745q0 59 33.5 103.5t91.5 44.5q43 0 69.5 -28.5t26.5 -78.5q0 -59 -34 -103t-91 -44q-43 0 -69.5 28.5t-26.5 77.5z" />
<glyph unicode="&#xc0;" horiz-adv-x="1214" d="M-193 -8v28q55 12 93.5 31t73 51.5t71.5 84t88 126.5q33 51 85 131t117.5 174.5t139.5 199t152 204.5t155.5 191.5t147.5 158.5l47 -12v-1227q0 -31 13.5 -48t33.5 -28.5t46 -18.5t48 -18v-28q-59 6 -119.5 7t-119.5 1q-74 0 -148 -1t-147 -7v28q66 16 107.5 31t66 33 t34 45t9.5 64v380h-424q-18 -25 -57 -90t-79 -140t-71 -141.5t-31 -95.5q0 -25 16.5 -40t40 -23t49 -12t44.5 -11v-28q-63 6 -125 7t-125 1q-59 0 -115.5 -2t-116.5 -6zM408 631h393v543q-109 -125 -206 -262.5t-187 -280.5zM721 1685q0 29 19.5 51.5t48.5 22.5q51 0 82 -45 l219 -307h-64l-264 217q-23 18 -32 30.5t-9 30.5z" />
<glyph unicode="&#xc1;" horiz-adv-x="1214" d="M-193 -8v28q55 12 93.5 31t73 51.5t71.5 84t88 126.5q33 51 85 131t117.5 174.5t139.5 199t152 204.5t155.5 191.5t147.5 158.5l47 -12v-1227q0 -31 13.5 -48t33.5 -28.5t46 -18.5t48 -18v-28q-59 6 -119.5 7t-119.5 1q-74 0 -148 -1t-147 -7v28q66 16 107.5 31t66 33 t34 45t9.5 64v380h-424q-18 -25 -57 -90t-79 -140t-71 -141.5t-31 -95.5q0 -25 16.5 -40t40 -23t49 -12t44.5 -11v-28q-63 6 -125 7t-125 1q-59 0 -115.5 -2t-116.5 -6zM408 631h393v543q-109 -125 -206 -262.5t-187 -280.5zM867 1407l305 323q8 8 21.5 16.5t33.5 8.5 q29 0 51.5 -22.5t22.5 -51.5q0 -35 -37 -59.5t-88 -59.5l-238 -155h-71z" />
<glyph unicode="&#xc2;" horiz-adv-x="1214" d="M-193 -8v28q55 12 93.5 31t73 51.5t71.5 84t88 126.5q33 51 85 131t117.5 174.5t139.5 199t152 204.5t155.5 191.5t147.5 158.5l47 -12v-1227q0 -31 13.5 -48t33.5 -28.5t46 -18.5t48 -18v-28q-59 6 -119.5 7t-119.5 1q-74 0 -148 -1t-147 -7v28q66 16 107.5 31t66 33 t34 45t9.5 64v380h-424q-18 -25 -57 -90t-79 -140t-71 -141.5t-31 -95.5q0 -25 16.5 -40t40 -23t49 -12t44.5 -11v-28q-63 6 -125 7t-125 1q-59 0 -115.5 -2t-116.5 -6zM408 631h393v543q-109 -125 -206 -262.5t-187 -280.5zM668 1407l303 348h101l161 -348h-75l-150 213 l-260 -213h-80z" />
<glyph unicode="&#xc3;" horiz-adv-x="1214" d="M-193 -8v28q55 12 93.5 31t73 51.5t71.5 84t88 126.5q33 51 85 131t117.5 174.5t139.5 199t152 204.5t155.5 191.5t147.5 158.5l47 -12v-1227q0 -31 13.5 -48t33.5 -28.5t46 -18.5t48 -18v-28q-59 6 -119.5 7t-119.5 1q-74 0 -148 -1t-147 -7v28q66 16 107.5 31t66 33 t34 45t9.5 64v380h-424q-18 -25 -57 -90t-79 -140t-71 -141.5t-31 -95.5q0 -25 16.5 -40t40 -23t49 -12t44.5 -11v-28q-63 6 -125 7t-125 1q-59 0 -115.5 -2t-116.5 -6zM408 631h393v543q-109 -125 -206 -262.5t-187 -280.5zM711 1458q6 37 16.5 75t30 69.5t49 52t74.5 20.5 q37 0 76 -14.5t78 -30.5t75.5 -30.5t69.5 -14.5q43 0 58.5 27.5t25.5 62.5h53q-4 -33 -14 -70.5t-27.5 -69.5t-46 -52.5t-69.5 -20.5q-29 0 -72 15.5t-86 31.5q-45 16 -85 30.5t-63 14.5q-39 0 -58 -30.5t-30 -65.5h-55z" />
<glyph unicode="&#xc4;" horiz-adv-x="1214" d="M-193 -8v28q55 12 93.5 31t73 51.5t71.5 84t88 126.5q33 51 85 131t117.5 174.5t139.5 199t152 204.5t155.5 191.5t147.5 158.5l47 -12v-1227q0 -31 13.5 -48t33.5 -28.5t46 -18.5t48 -18v-28q-59 6 -119.5 7t-119.5 1q-74 0 -148 -1t-147 -7v28q66 16 107.5 31t66 33 t34 45t9.5 64v380h-424q-18 -25 -57 -90t-79 -140t-71 -141.5t-31 -95.5q0 -25 16.5 -40t40 -23t49 -12t44.5 -11v-28q-63 6 -125 7t-125 1q-59 0 -115.5 -2t-116.5 -6zM408 631h393v543q-109 -125 -206 -262.5t-187 -280.5zM719 1544q0 39 30 67.5t71 28.5q37 0 68.5 -28.5 t31.5 -75.5q0 -39 -29.5 -67.5t-70.5 -28.5q-37 0 -69 28.5t-32 75.5zM1082 1544q0 39 29.5 67.5t70.5 28.5q37 0 68.5 -28.5t31.5 -75.5q0 -39 -29.5 -67.5t-70.5 -28.5q-37 0 -68.5 28.5t-31.5 75.5z" />
<glyph unicode="&#xc5;" horiz-adv-x="1214" d="M-193 -8v28q55 12 93.5 31t73 51.5t71.5 84t88 126.5q33 51 85 131t117.5 174.5t139.5 199t152 204.5t155.5 191.5t147.5 158.5l47 -12v-1227q0 -31 13.5 -48t33.5 -28.5t46 -18.5t48 -18v-28q-59 6 -119.5 7t-119.5 1q-74 0 -148 -1t-147 -7v28q66 16 107.5 31t66 33 t34 45t9.5 64v380h-424q-18 -25 -57 -90t-79 -140t-71 -141.5t-31 -95.5q0 -25 16.5 -40t40 -23t49 -12t44.5 -11v-28q-63 6 -125 7t-125 1q-59 0 -115.5 -2t-116.5 -6zM408 631h393v543q-109 -125 -206 -262.5t-187 -280.5zM799 1612q0 43 16.5 79.5t44 64.5t64.5 43t78 15 q43 0 80 -16t64.5 -44t43 -66t15.5 -78q0 -43 -16.5 -80t-44 -64.5t-64.5 -43t-78 -15.5q-43 0 -80 16.5t-64.5 44t-43 65.5t-15.5 79zM869 1612q0 -55 39 -95.5t94 -40.5t94 38t39 96q0 55 -39 95t-94 40t-94 -38t-39 -95z" />
<glyph unicode="&#xc6;" horiz-adv-x="1820" d="M-74 -8v35q18 43 89 131t171.5 200.5t220 238.5t236.5 243.5t222.5 216t174.5 155.5q10 8 18.5 18.5t8.5 24.5t-15.5 23.5t-39 15.5t-51 10.5t-52.5 10.5v24q98 -8 195 -8h194q135 0 268.5 1t268.5 7q0 -47 -3 -95t-3 -95t3 -92t3 -90h-25q-47 66 -74.5 146.5 t-43.5 162.5q-98 8 -195.5 9t-196.5 5l-196 -561q125 0 195.5 6t115.5 29.5t79 70t85 126.5h35q-59 -141 -111.5 -282.5t-95.5 -289.5h-37q2 37 7 87t5 138q0 35 -12 50.5t-29 15.5h-251l-201 -604q45 -4 115.5 -12.5t147.5 -15.5t149.5 -13t123.5 -6q74 96 149 184t163 160 l16 -21q-47 -88 -82 -180t-72 -184q-39 2 -134 4t-215 3t-246 1h-230q-66 4 -132.5 2t-133.5 -6v28q55 10 91 21.5t59.5 27t38 39t26.5 56.5l154 420h-420q-18 -14 -49 -50t-67 -84.5t-73 -101.5t-67.5 -102t-50 -88t-19.5 -58q0 -27 26.5 -41t62.5 -22t72 -10t54 -7v-28 q-59 4 -117.5 6t-117.5 2q-137 0 -185 -8zM496 629h395l199 571l-5 4q-154 -135 -301 -278.5t-288 -296.5z" />
<glyph unicode="&#xc7;" horiz-adv-x="1290" d="M111 399q0 182 73.5 357.5t200.5 312.5t296 220t359 83q66 0 133.5 -16.5t124.5 -44.5q-25 -98 -45 -196.5t-39 -196.5h-20q-4 72 -17.5 143.5t-45 128.5t-85 93t-137.5 36q-92 0 -174 -43t-149.5 -114.5t-119.5 -164t-88 -190.5t-55.5 -194.5t-19.5 -176.5 q0 -78 17.5 -146.5t54.5 -120.5t97 -82t146 -30q90 0 168 35t144.5 90.5t122 124t100.5 137.5l27 -18q-43 -84 -113 -167t-155 -149.5t-182 -108.5t-195 -42q-96 0 -175 33t-134.5 92t-85 140t-29.5 175zM223 -403l33 55q25 -10 60.5 -21.5t62.5 -11.5q20 0 43.5 4t44 14.5 t33 28t12.5 45.5q0 41 -29 66.5t-68 25.5q-16 0 -34.5 -7t-34.5 -11l-21 16l127 199h72l-88 -137q16 2 30.5 4t30.5 2q59 0 108.5 -34t49.5 -99q0 -51 -21.5 -86t-56.5 -56.5t-79 -30.5t-89 -9q-18 0 -43.5 3t-51.5 9t-50.5 13t-40.5 18z" />
<glyph unicode="&#xc8;" horiz-adv-x="1214" d="M-98 -8v22q63 18 116.5 36t77.5 67q18 37 54 131t79 213t87 249t80 239.5t59.5 185t23.5 86.5q0 18 -22.5 31.5t-52 24.5t-59.5 17t-46 9v28h930q-2 -47 -4 -91t-2 -91t2 -93t4 -93h-25q-20 23 -38.5 63.5t-34 86.5t-25.5 89t-16 68q-98 12 -195 12h-193l-204 -549 q125 0 194.5 7.5t114.5 30t76.5 68.5t81.5 126h43q-59 -141 -111.5 -282.5t-95.5 -289.5h-39q6 57 10 112.5t4 112.5q0 35 -12 50.5t-29 15.5h-252l-200 -604q45 -4 115.5 -12.5t147.5 -15.5t149.5 -13t123.5 -6q74 96 148.5 184t162.5 160l17 -21q-47 -88 -82 -180 t-72 -184q-39 2 -134 4t-215 3t-247 1h-229q-66 0 -133.5 -2t-132.5 -6zM630 1685q0 29 19.5 51.5t48.5 22.5q51 0 82 -45l219 -307h-64l-264 217q-23 18 -32 30.5t-9 30.5z" />
<glyph unicode="&#xc9;" horiz-adv-x="1214" d="M-98 -8v22q63 18 116.5 36t77.5 67q18 37 54 131t79 213t87 249t80 239.5t59.5 185t23.5 86.5q0 18 -22.5 31.5t-52 24.5t-59.5 17t-46 9v28h930q-2 -47 -4 -91t-2 -91t2 -93t4 -93h-25q-20 23 -38.5 63.5t-34 86.5t-25.5 89t-16 68q-98 12 -195 12h-193l-204 -549 q125 0 194.5 7.5t114.5 30t76.5 68.5t81.5 126h43q-59 -141 -111.5 -282.5t-95.5 -289.5h-39q6 57 10 112.5t4 112.5q0 35 -12 50.5t-29 15.5h-252l-200 -604q45 -4 115.5 -12.5t147.5 -15.5t149.5 -13t123.5 -6q74 96 148.5 184t162.5 160l17 -21q-47 -88 -82 -180 t-72 -184q-39 2 -134 4t-215 3t-247 1h-229q-66 0 -133.5 -2t-132.5 -6zM776 1407l305 323q8 8 21.5 16.5t33.5 8.5q29 0 51.5 -22.5t22.5 -51.5q0 -35 -37 -59.5t-88 -59.5l-238 -155h-71z" />
<glyph unicode="&#xca;" horiz-adv-x="1214" d="M-98 -8v22q63 18 116.5 36t77.5 67q18 37 54 131t79 213t87 249t80 239.5t59.5 185t23.5 86.5q0 18 -22.5 31.5t-52 24.5t-59.5 17t-46 9v28h930q-2 -47 -4 -91t-2 -91t2 -93t4 -93h-25q-20 23 -38.5 63.5t-34 86.5t-25.5 89t-16 68q-98 12 -195 12h-193l-204 -549 q125 0 194.5 7.5t114.5 30t76.5 68.5t81.5 126h43q-59 -141 -111.5 -282.5t-95.5 -289.5h-39q6 57 10 112.5t4 112.5q0 35 -12 50.5t-29 15.5h-252l-200 -604q45 -4 115.5 -12.5t147.5 -15.5t149.5 -13t123.5 -6q74 96 148.5 184t162.5 160l17 -21q-47 -88 -82 -180 t-72 -184q-39 2 -134 4t-215 3t-247 1h-229q-66 0 -133.5 -2t-132.5 -6zM577 1407l303 348h101l161 -348h-75l-150 213l-260 -213h-80z" />
<glyph unicode="&#xcb;" horiz-adv-x="1214" d="M-98 -8v22q63 18 116.5 36t77.5 67q18 37 54 131t79 213t87 249t80 239.5t59.5 185t23.5 86.5q0 18 -22.5 31.5t-52 24.5t-59.5 17t-46 9v28h930q-2 -47 -4 -91t-2 -91t2 -93t4 -93h-25q-20 23 -38.5 63.5t-34 86.5t-25.5 89t-16 68q-98 12 -195 12h-193l-204 -549 q125 0 194.5 7.5t114.5 30t76.5 68.5t81.5 126h43q-59 -141 -111.5 -282.5t-95.5 -289.5h-39q6 57 10 112.5t4 112.5q0 35 -12 50.5t-29 15.5h-252l-200 -604q45 -4 115.5 -12.5t147.5 -15.5t149.5 -13t123.5 -6q74 96 148.5 184t162.5 160l17 -21q-47 -88 -82 -180 t-72 -184q-39 2 -134 4t-215 3t-247 1h-229q-66 0 -133.5 -2t-132.5 -6zM628 1544q0 39 30 67.5t71 28.5q37 0 68.5 -28.5t31.5 -75.5q0 -39 -29.5 -67.5t-70.5 -28.5q-37 0 -69 28.5t-32 75.5zM991 1544q0 39 29.5 67.5t70.5 28.5q37 0 68.5 -28.5t31.5 -75.5 q0 -39 -29.5 -67.5t-70.5 -28.5q-37 0 -68.5 28.5t-31.5 75.5z" />
<glyph unicode="&#xcc;" horiz-adv-x="757" d="M-88 -8v28q61 16 98 26.5t58.5 25t34 35t24.5 53.5q12 35 44 122t73 199.5t85 235.5t80.5 231.5t60.5 186t24 100.5q0 20 -19.5 34.5t-46.5 24t-54.5 13.5t-45.5 4v28q72 -4 144.5 -6t143.5 -2q66 0 139.5 2t139.5 6l-6 -28q-55 -6 -89 -13.5t-57.5 -25t-41 -48 t-39.5 -83.5q-14 -35 -47 -123t-73 -200.5t-84 -236.5t-80 -229.5t-58.5 -179.5t-22.5 -88q0 -20 21.5 -31.5t51 -17.5t58.5 -9t41 -6v-28q-72 4 -144.5 6t-144.5 2q-68 0 -134 -2t-134 -6zM403 1685q0 29 19.5 51.5t48.5 22.5q51 0 82 -45l219 -307h-64l-264 217 q-23 18 -32 30.5t-9 30.5z" />
<glyph unicode="&#xcd;" horiz-adv-x="757" d="M-88 -8v28q61 16 98 26.5t58.5 25t34 35t24.5 53.5q12 35 44 122t73 199.5t85 235.5t80.5 231.5t60.5 186t24 100.5q0 20 -19.5 34.5t-46.5 24t-54.5 13.5t-45.5 4v28q72 -4 144.5 -6t143.5 -2q66 0 139.5 2t139.5 6l-6 -28q-55 -6 -89 -13.5t-57.5 -25t-41 -48 t-39.5 -83.5q-14 -35 -47 -123t-73 -200.5t-84 -236.5t-80 -229.5t-58.5 -179.5t-22.5 -88q0 -20 21.5 -31.5t51 -17.5t58.5 -9t41 -6v-28q-72 4 -144.5 6t-144.5 2q-68 0 -134 -2t-134 -6zM549 1407l305 323q8 8 21.5 16.5t33.5 8.5q29 0 51.5 -22.5t22.5 -51.5 q0 -35 -37 -59.5t-88 -59.5l-238 -155h-71z" />
<glyph unicode="&#xce;" horiz-adv-x="757" d="M-88 -8v28q61 16 98 26.5t58.5 25t34 35t24.5 53.5q12 35 44 122t73 199.5t85 235.5t80.5 231.5t60.5 186t24 100.5q0 20 -19.5 34.5t-46.5 24t-54.5 13.5t-45.5 4v28q72 -4 144.5 -6t143.5 -2q66 0 139.5 2t139.5 6l-6 -28q-55 -6 -89 -13.5t-57.5 -25t-41 -48 t-39.5 -83.5q-14 -35 -47 -123t-73 -200.5t-84 -236.5t-80 -229.5t-58.5 -179.5t-22.5 -88q0 -20 21.5 -31.5t51 -17.5t58.5 -9t41 -6v-28q-72 4 -144.5 6t-144.5 2q-68 0 -134 -2t-134 -6zM350 1407l303 348h101l161 -348h-75l-150 213l-260 -213h-80z" />
<glyph unicode="&#xcf;" horiz-adv-x="757" d="M-88 -8v28q61 16 98 26.5t58.5 25t34 35t24.5 53.5q12 35 44 122t73 199.5t85 235.5t80.5 231.5t60.5 186t24 100.5q0 20 -19.5 34.5t-46.5 24t-54.5 13.5t-45.5 4v28q72 -4 144.5 -6t143.5 -2q66 0 139.5 2t139.5 6l-6 -28q-55 -6 -89 -13.5t-57.5 -25t-41 -48 t-39.5 -83.5q-14 -35 -47 -123t-73 -200.5t-84 -236.5t-80 -229.5t-58.5 -179.5t-22.5 -88q0 -20 21.5 -31.5t51 -17.5t58.5 -9t41 -6v-28q-72 4 -144.5 6t-144.5 2q-68 0 -134 -2t-134 -6zM401 1544q0 39 30 67.5t71 28.5q37 0 68.5 -28.5t31.5 -75.5q0 -39 -29.5 -67.5 t-70.5 -28.5q-37 0 -69 28.5t-32 75.5zM764 1544q0 39 29.5 67.5t70.5 28.5q37 0 68.5 -28.5t31.5 -75.5q0 -39 -29.5 -67.5t-70.5 -28.5q-37 0 -68.5 28.5t-31.5 75.5z" />
<glyph unicode="&#xd0;" horiz-adv-x="1366" d="M-117 0l4 29q68 4 109 17t65.5 30.5t36 35t15.5 29.5q2 6 19.5 51.5t43 115t58 157.5t65.5 182h-213v58h231q31 88 60 170.5t50.5 152.5t33.5 120t12 73q0 27 -27.5 43t-64.5 25t-74 14.5t-55 7.5v20l145 4q53 2 114.5 4t125 5.5t126 5.5t116.5 2q217 0 338.5 -103.5 t121.5 -333.5q0 -154 -51 -301t-141 -269t-214 -208t-271 -117q-35 -8 -79 -12t-88 -6t-85 -2h-72h-455zM285 72q41 -18 87 -24.5t91 -6.5q172 0 300 80t213 207t128 282.5t43 307.5q0 82 -15.5 153.5t-50 124.5t-92 84t-141.5 31q-76 0 -154 -17q-53 -147 -103 -293.5 t-99 -295.5h278v-58h-299q-47 -143 -94 -286.5t-92 -288.5z" />
<glyph unicode="&#xd1;" horiz-adv-x="1441" d="M-164 -8v28q39 6 79 15.5t76 25t64.5 40t44.5 63.5q12 29 44 113.5t71 195.5t82 231.5t78 224t57.5 174.5t22.5 77q0 29 -27 52t-61.5 40.5t-71.5 27t-55 11.5l6 28q53 -2 104 -5t105 -3q47 0 94 4t94 4q92 -266 191.5 -527t199.5 -523h4q-6 -20 2.5 5t26.5 80.5 t45 134.5t54.5 165l55 172t50 157.5t36 119.5t13.5 61q0 35 -25.5 57.5t-61.5 35.5t-73 20.5t-61 13.5v28q70 -2 137.5 -5t136.5 -3q61 0 124 3t124 5v-28q-47 -10 -82 -22.5t-61.5 -33t-48 -49t-39.5 -71.5q-20 -45 -51 -126t-68 -184.5t-78 -220.5t-78 -230.5t-69.5 -216 t-55.5 -177.5h-37q-104 299 -213.5 594.5t-232.5 588.5q-10 -29 -38 -110.5t-62.5 -189t-73.5 -228.5t-72 -224.5t-53.5 -178t-20.5 -93.5q0 -27 22.5 -46t55.5 -32.5t67 -23.5t56 -17v-28q-68 4 -136.5 6t-137.5 2q-70 0 -139.5 -2t-139.5 -6zM741 1458q6 37 16.5 75 t30 69.5t49 52t74.5 20.5q37 0 76 -14.5t78 -30.5t75.5 -30.5t69.5 -14.5q43 0 58.5 27.5t25.5 62.5h53q-4 -33 -14 -70.5t-27.5 -69.5t-46 -52.5t-69.5 -20.5q-29 0 -72 15.5t-86 31.5q-45 16 -85 30.5t-63 14.5q-39 0 -58 -30.5t-30 -65.5h-55z" />
<glyph unicode="&#xd2;" horiz-adv-x="1327" d="M96 354q0 104 32 221t89 230t137 216t175.5 181t203.5 124t223 46q90 0 155 -29.5t105.5 -83t61 -125t20.5 -157.5q0 -104 -31.5 -221t-89 -229.5t-137 -216t-175 -181.5t-204 -124t-223.5 -46q-88 0 -153.5 29.5t-106.5 83t-61.5 125t-20.5 157.5zM289 317 q0 -59 11 -112t36.5 -93t71 -63.5t112.5 -23.5q92 0 172 56t144.5 146t114.5 202t85 223.5t52.5 211t17.5 162.5q0 59 -11.5 112.5t-38 93.5t-72.5 63.5t-116 23.5q-90 0 -168.5 -56.5t-143 -146.5t-115 -201.5t-84 -223t-51 -211t-17.5 -163.5zM719 1685q0 29 19.5 51.5 t48.5 22.5q51 0 82 -45l219 -307h-64l-264 217q-23 18 -32 30.5t-9 30.5z" />
<glyph unicode="&#xd3;" horiz-adv-x="1327" d="M96 354q0 104 32 221t89 230t137 216t175.5 181t203.5 124t223 46q90 0 155 -29.5t105.5 -83t61 -125t20.5 -157.5q0 -104 -31.5 -221t-89 -229.5t-137 -216t-175 -181.5t-204 -124t-223.5 -46q-88 0 -153.5 29.5t-106.5 83t-61.5 125t-20.5 157.5zM289 317 q0 -59 11 -112t36.5 -93t71 -63.5t112.5 -23.5q92 0 172 56t144.5 146t114.5 202t85 223.5t52.5 211t17.5 162.5q0 59 -11.5 112.5t-38 93.5t-72.5 63.5t-116 23.5q-90 0 -168.5 -56.5t-143 -146.5t-115 -201.5t-84 -223t-51 -211t-17.5 -163.5zM865 1407l305 323 q8 8 21.5 16.5t33.5 8.5q29 0 51.5 -22.5t22.5 -51.5q0 -35 -37 -59.5t-88 -59.5l-238 -155h-71z" />
<glyph unicode="&#xd4;" horiz-adv-x="1327" d="M96 354q0 104 32 221t89 230t137 216t175.5 181t203.5 124t223 46q90 0 155 -29.5t105.5 -83t61 -125t20.5 -157.5q0 -104 -31.5 -221t-89 -229.5t-137 -216t-175 -181.5t-204 -124t-223.5 -46q-88 0 -153.5 29.5t-106.5 83t-61.5 125t-20.5 157.5zM289 317 q0 -59 11 -112t36.5 -93t71 -63.5t112.5 -23.5q92 0 172 56t144.5 146t114.5 202t85 223.5t52.5 211t17.5 162.5q0 59 -11.5 112.5t-38 93.5t-72.5 63.5t-116 23.5q-90 0 -168.5 -56.5t-143 -146.5t-115 -201.5t-84 -223t-51 -211t-17.5 -163.5zM666 1407l303 348h101 l161 -348h-75l-150 213l-260 -213h-80z" />
<glyph unicode="&#xd5;" horiz-adv-x="1327" d="M96 354q0 104 32 221t89 230t137 216t175.5 181t203.5 124t223 46q90 0 155 -29.5t105.5 -83t61 -125t20.5 -157.5q0 -104 -31.5 -221t-89 -229.5t-137 -216t-175 -181.5t-204 -124t-223.5 -46q-88 0 -153.5 29.5t-106.5 83t-61.5 125t-20.5 157.5zM289 317 q0 -59 11 -112t36.5 -93t71 -63.5t112.5 -23.5q92 0 172 56t144.5 146t114.5 202t85 223.5t52.5 211t17.5 162.5q0 59 -11.5 112.5t-38 93.5t-72.5 63.5t-116 23.5q-90 0 -168.5 -56.5t-143 -146.5t-115 -201.5t-84 -223t-51 -211t-17.5 -163.5zM709 1458q6 37 16.5 75 t30 69.5t49 52t74.5 20.5q37 0 76 -14.5t78 -30.5t75.5 -30.5t69.5 -14.5q43 0 58.5 27.5t25.5 62.5h53q-4 -33 -14 -70.5t-27.5 -69.5t-46 -52.5t-69.5 -20.5q-29 0 -72 15.5t-86 31.5q-45 16 -85 30.5t-63 14.5q-39 0 -58 -30.5t-30 -65.5h-55z" />
<glyph unicode="&#xd6;" horiz-adv-x="1327" d="M96 354q0 104 32 221t89 230t137 216t175.5 181t203.5 124t223 46q90 0 155 -29.5t105.5 -83t61 -125t20.5 -157.5q0 -104 -31.5 -221t-89 -229.5t-137 -216t-175 -181.5t-204 -124t-223.5 -46q-88 0 -153.5 29.5t-106.5 83t-61.5 125t-20.5 157.5zM289 317 q0 -59 11 -112t36.5 -93t71 -63.5t112.5 -23.5q92 0 172 56t144.5 146t114.5 202t85 223.5t52.5 211t17.5 162.5q0 59 -11.5 112.5t-38 93.5t-72.5 63.5t-116 23.5q-90 0 -168.5 -56.5t-143 -146.5t-115 -201.5t-84 -223t-51 -211t-17.5 -163.5zM717 1544q0 39 30 67.5 t71 28.5q37 0 68.5 -28.5t31.5 -75.5q0 -39 -29.5 -67.5t-70.5 -28.5q-37 0 -69 28.5t-32 75.5zM1080 1544q0 39 29.5 67.5t70.5 28.5q37 0 68.5 -28.5t31.5 -75.5q0 -39 -29.5 -67.5t-70.5 -28.5q-37 0 -68.5 28.5t-31.5 75.5z" />
<glyph unicode="&#xd7;" horiz-adv-x="1024" d="M90 74l307 311l-307 311l72 74l309 -313l309 313l72 -74l-307 -311l307 -311l-72 -74l-309 313l-309 -313z" />
<glyph unicode="&#xd8;" horiz-adv-x="1327" d="M-18 -174l198 244q-43 53 -63.5 125.5t-20.5 158.5q0 104 32 221t89 230t137 216t175.5 181t204 124t222.5 46q133 0 222 -72l133 164h80l-170 -211q41 -53 59 -122.5t18 -153.5q0 -104 -31.5 -221t-89 -229.5t-137 -216t-175 -181.5t-204 -124t-223.5 -46 q-66 0 -119 17.5t-94 48.5l-162 -199h-81zM289 317q0 -27 2 -52t8 -50l782 965q-23 61 -71.5 100t-141.5 39q-90 0 -168.5 -56.5t-143 -146.5t-115 -201.5t-84 -223t-51 -211t-17.5 -163.5zM322 143q23 -53 70.5 -85.5t127.5 -32.5q92 0 172 56t144.5 146t114.5 202 t85 223.5t52.5 211t17.5 162.5q0 41 -6 78z" />
<glyph unicode="&#xd9;" horiz-adv-x="1441" d="M164 299q0 41 21.5 119t55 173t71.5 196.5t72 190.5t55.5 154.5t21.5 88.5q0 10 -4 22t-23.5 25.5t-57.5 26t-106 22.5v22q74 -4 146.5 -6t146.5 -2q78 0 155 2t154 6v-28q-92 -4 -146 -36t-81 -97q-16 -35 -45 -110t-63.5 -167t-70.5 -194.5t-64.5 -194.5t-47 -165 t-18.5 -107q0 -57 22.5 -100.5t59.5 -73t85 -44t101 -14.5q31 0 67 4t76.5 19.5t88 45t104.5 81.5q20 18 47 70.5t58.5 127t66.5 164.5t67.5 182.5t61.5 179.5t50.5 157.5t34.5 116.5t13 54q0 27 -24.5 43.5t-58 27.5t-68.5 17.5t-55 12.5v28q70 -4 138 -6t138 -2 q57 0 113.5 2t113.5 6v-28q-18 -2 -41.5 -9.5t-47 -17.5t-43 -24.5t-29.5 -30.5q-20 -35 -56.5 -121t-86.5 -207t-113.5 -270.5t-137.5 -311.5q-31 -68 -73.5 -132t-106 -114t-148.5 -82t-202 -32q-74 0 -143.5 23.5t-124 67.5t-87 106.5t-32.5 142.5zM776 1685 q0 29 19.5 51.5t48.5 22.5q51 0 82 -45l219 -307h-64l-264 217q-23 18 -32 30.5t-9 30.5z" />
<glyph unicode="&#xda;" horiz-adv-x="1441" d="M164 299q0 41 21.5 119t55 173t71.5 196.5t72 190.5t55.5 154.5t21.5 88.5q0 10 -4 22t-23.5 25.5t-57.5 26t-106 22.5v22q74 -4 146.5 -6t146.5 -2q78 0 155 2t154 6v-28q-92 -4 -146 -36t-81 -97q-16 -35 -45 -110t-63.5 -167t-70.5 -194.5t-64.5 -194.5t-47 -165 t-18.5 -107q0 -57 22.5 -100.5t59.5 -73t85 -44t101 -14.5q31 0 67 4t76.5 19.5t88 45t104.5 81.5q20 18 47 70.5t58.5 127t66.5 164.5t67.5 182.5t61.5 179.5t50.5 157.5t34.5 116.5t13 54q0 27 -24.5 43.5t-58 27.5t-68.5 17.5t-55 12.5v28q70 -4 138 -6t138 -2 q57 0 113.5 2t113.5 6v-28q-18 -2 -41.5 -9.5t-47 -17.5t-43 -24.5t-29.5 -30.5q-20 -35 -56.5 -121t-86.5 -207t-113.5 -270.5t-137.5 -311.5q-31 -68 -73.5 -132t-106 -114t-148.5 -82t-202 -32q-74 0 -143.5 23.5t-124 67.5t-87 106.5t-32.5 142.5zM922 1407l305 323 q8 8 21.5 16.5t33.5 8.5q29 0 51.5 -22.5t22.5 -51.5q0 -35 -37 -59.5t-88 -59.5l-238 -155h-71z" />
<glyph unicode="&#xdb;" horiz-adv-x="1441" d="M164 299q0 41 21.5 119t55 173t71.5 196.5t72 190.5t55.5 154.5t21.5 88.5q0 10 -4 22t-23.5 25.5t-57.5 26t-106 22.5v22q74 -4 146.5 -6t146.5 -2q78 0 155 2t154 6v-28q-92 -4 -146 -36t-81 -97q-16 -35 -45 -110t-63.5 -167t-70.5 -194.5t-64.5 -194.5t-47 -165 t-18.5 -107q0 -57 22.5 -100.5t59.5 -73t85 -44t101 -14.5q31 0 67 4t76.5 19.5t88 45t104.5 81.5q20 18 47 70.5t58.5 127t66.5 164.5t67.5 182.5t61.5 179.5t50.5 157.5t34.5 116.5t13 54q0 27 -24.5 43.5t-58 27.5t-68.5 17.5t-55 12.5v28q70 -4 138 -6t138 -2 q57 0 113.5 2t113.5 6v-28q-18 -2 -41.5 -9.5t-47 -17.5t-43 -24.5t-29.5 -30.5q-20 -35 -56.5 -121t-86.5 -207t-113.5 -270.5t-137.5 -311.5q-31 -68 -73.5 -132t-106 -114t-148.5 -82t-202 -32q-74 0 -143.5 23.5t-124 67.5t-87 106.5t-32.5 142.5zM723 1407l303 348h101 l161 -348h-75l-150 213l-260 -213h-80z" />
<glyph unicode="&#xdc;" horiz-adv-x="1441" d="M164 299q0 41 21.5 119t55 173t71.5 196.5t72 190.5t55.5 154.5t21.5 88.5q0 10 -4 22t-23.5 25.5t-57.5 26t-106 22.5v22q74 -4 146.5 -6t146.5 -2q78 0 155 2t154 6v-28q-92 -4 -146 -36t-81 -97q-16 -35 -45 -110t-63.5 -167t-70.5 -194.5t-64.5 -194.5t-47 -165 t-18.5 -107q0 -57 22.5 -100.5t59.5 -73t85 -44t101 -14.5q31 0 67 4t76.5 19.5t88 45t104.5 81.5q20 18 47 70.5t58.5 127t66.5 164.5t67.5 182.5t61.5 179.5t50.5 157.5t34.5 116.5t13 54q0 27 -24.5 43.5t-58 27.5t-68.5 17.5t-55 12.5v28q70 -4 138 -6t138 -2 q57 0 113.5 2t113.5 6v-28q-18 -2 -41.5 -9.5t-47 -17.5t-43 -24.5t-29.5 -30.5q-20 -35 -56.5 -121t-86.5 -207t-113.5 -270.5t-137.5 -311.5q-31 -68 -73.5 -132t-106 -114t-148.5 -82t-202 -32q-74 0 -143.5 23.5t-124 67.5t-87 106.5t-32.5 142.5zM774 1544 q0 39 30 67.5t71 28.5q37 0 68.5 -28.5t31.5 -75.5q0 -39 -29.5 -67.5t-70.5 -28.5q-37 0 -69 28.5t-32 75.5zM1137 1544q0 39 29.5 67.5t70.5 28.5q37 0 68.5 -28.5t31.5 -75.5q0 -39 -29.5 -67.5t-70.5 -28.5q-37 0 -68.5 28.5t-31.5 75.5z" />
<glyph unicode="&#xdd;" horiz-adv-x="1290" d="M109 -8v28q84 12 136 22.5t83.5 28t50 46t37.5 78.5l166 456q-14 43 -39 125t-52.5 172t-57.5 170t-56 119q-8 14 -37 26.5t-61.5 22.5t-63.5 16.5t-45 8.5v28q76 -4 149.5 -6t149.5 -2q78 0 154.5 2t154.5 6v-28q-31 -2 -63.5 -7.5t-60 -14.5t-45 -23.5t-17.5 -36.5 q0 -20 17.5 -89t41 -152t47 -165t37.5 -131q18 20 59.5 63.5t92.5 98.5t105.5 115.5t99.5 113t73.5 91t28.5 49.5q0 23 -29.5 38t-67.5 25t-73 16.5t-47 8.5v28q72 -2 143.5 -5t143.5 -3q55 0 110.5 3t110.5 5v-28q-23 -16 -73 -56.5t-115.5 -93.5t-140.5 -117.5 t-148.5 -132t-140 -135t-115.5 -129.5q-18 -63 -47 -144t-55.5 -159t-45 -142.5t-18.5 -95.5q0 -18 27.5 -31.5t69.5 -22.5t92 -17t97 -15v-28q-12 4 -114.5 6t-288.5 2q-45 0 -96 -1t-99.5 -2t-91.5 -2t-73 -3zM815 1407l305 323q8 8 21.5 16.5t33.5 8.5q29 0 51.5 -22.5 t22.5 -51.5q0 -35 -37 -59.5t-88 -59.5l-238 -155h-71z" />
<glyph unicode="&#xde;" horiz-adv-x="1138" d="M-88 -8v28q61 16 98 26.5t58.5 25t34 35t24.5 53.5q12 35 44 122t73 199.5t85 235.5t80.5 231.5t60.5 186t24 100.5q0 20 -19.5 34.5t-46.5 24t-54.5 13.5t-45.5 4v28q72 -4 144.5 -6t143.5 -2q66 0 140.5 2t140.5 6l-8 -28q-51 -2 -88 -13.5t-64.5 -36t-49 -66.5 t-44.5 -103q12 2 25 2h24q72 0 144.5 -17.5t130 -54.5t93.5 -93.5t36 -133.5q0 -145 -62.5 -236.5t-165 -142.5t-231.5 -69.5t-264 -20.5q-2 -8 -14.5 -43t-27 -76t-24.5 -77t-10 -46q0 -20 21.5 -31.5t51 -17.5t58.5 -8t41 -7v-28q-72 4 -144.5 6t-144.5 2q-68 0 -134 -2 t-134 -6zM383 358q106 2 201.5 29t168 81t115.5 135t43 192q0 133 -72.5 189t-193.5 56q-14 0 -22 -2q-66 -170 -126.5 -342t-113.5 -338z" />
<glyph unicode="&#xdf;" horiz-adv-x="1099" d="M-324 -360q0 29 20.5 51t51.5 22q33 0 46 -13t20.5 -28.5t14.5 -28t28 -12.5q37 0 66.5 32t51 77t35 91t21.5 75q51 188 101 399t112 416h-178l14 49h182q35 109 103.5 230.5t162 223t205 168t228.5 66.5q41 0 75.5 -16.5t59 -44t39 -63.5t14.5 -74q0 -66 -23.5 -109 t-57.5 -76t-75 -59.5t-74.5 -55t-57 -65.5t-23.5 -90q0 -59 14 -116.5t30.5 -115t31 -111.5t14.5 -110q0 -63 -31 -129.5t-81 -122t-113.5 -90.5t-129.5 -35q-86 0 -136 53.5t-50 137.5q0 57 27.5 95t87.5 38q25 0 47 -21.5t22 -62.5q0 -20 -16 -42.5t-37 -27.5 q6 -61 37 -84.5t90 -23.5q45 0 74 14.5t46 40t24.5 59t7.5 72.5q0 59 -15.5 113.5t-33.5 107.5q-18 55 -34 109.5t-16 110.5q0 70 22.5 118.5t55.5 85.5t72 68t71.5 67.5t55 86t22.5 118.5q0 86 -35.5 135.5t-127.5 49.5q-72 0 -132.5 -54.5t-110.5 -139.5t-89 -187.5 t-69 -197.5t-49 -171t-32 -106q-23 -59 -54.5 -155.5t-72.5 -205t-90 -218.5t-106.5 -198t-123 -143t-136.5 -55q-35 0 -64 18.5t-29 59.5z" />
<glyph unicode="&#xe0;" horiz-adv-x="948" d="M-43 141q0 76 33 154t85 150.5t118.5 136t132 110.5t126 75t101.5 28q35 0 60.5 -22.5t35.5 -55.5q18 35 29 65h135q-14 -27 -36.5 -84t-49.5 -128.5t-53.5 -146.5t-49 -139.5t-36 -109.5t-13.5 -55q0 -31 29 -44.5t55 -13.5q31 0 60 17.5t53.5 38t43 38t28.5 17.5 q12 0 12 -8q0 -6 -27.5 -37t-73.5 -64.5t-105.5 -60.5t-123.5 -27q-37 0 -77.5 21.5t-40.5 66.5q0 18 12 50t28.5 65t33 64.5t24.5 50.5l-4 4q-29 -45 -77 -101.5t-105.5 -105.5t-120 -82t-119.5 -33q-35 0 -58.5 15.5t-38 39t-20.5 53.5t-6 58zM117 160q0 -39 26.5 -62.5 t63.5 -23.5q47 0 92 28.5t85 70.5t70.5 90t47.5 85q6 16 23.5 53t33.5 77t29.5 75t13.5 45q0 25 -15.5 46.5t-38 37.5t-48 25.5t-45.5 9.5q-27 0 -44.5 -4t-29.5 -13.5t-22.5 -23.5t-26.5 -35q-35 -49 -73 -106.5t-69.5 -121t-52 -128t-20.5 -125.5zM350 1165 q0 29 19.5 51.5t48.5 22.5q51 0 82 -45l219 -307h-64l-264 217q-23 18 -32 30.5t-9 30.5z" />
<glyph unicode="&#xe1;" horiz-adv-x="948" d="M-43 141q0 76 33 154t85 150.5t118.5 136t132 110.5t126 75t101.5 28q35 0 60.5 -22.5t35.5 -55.5q18 35 29 65h135q-14 -27 -36.5 -84t-49.5 -128.5t-53.5 -146.5t-49 -139.5t-36 -109.5t-13.5 -55q0 -31 29 -44.5t55 -13.5q31 0 60 17.5t53.5 38t43 38t28.5 17.5 q12 0 12 -8q0 -6 -27.5 -37t-73.5 -64.5t-105.5 -60.5t-123.5 -27q-37 0 -77.5 21.5t-40.5 66.5q0 18 12 50t28.5 65t33 64.5t24.5 50.5l-4 4q-29 -45 -77 -101.5t-105.5 -105.5t-120 -82t-119.5 -33q-35 0 -58.5 15.5t-38 39t-20.5 53.5t-6 58zM117 160q0 -39 26.5 -62.5 t63.5 -23.5q47 0 92 28.5t85 70.5t70.5 90t47.5 85q6 16 23.5 53t33.5 77t29.5 75t13.5 45q0 25 -15.5 46.5t-38 37.5t-48 25.5t-45.5 9.5q-27 0 -44.5 -4t-29.5 -13.5t-22.5 -23.5t-26.5 -35q-35 -49 -73 -106.5t-69.5 -121t-52 -128t-20.5 -125.5zM496 887l305 323 q8 8 21.5 16.5t33.5 8.5q29 0 51.5 -22.5t22.5 -51.5q0 -35 -37 -59.5t-88 -59.5l-238 -155h-71z" />
<glyph unicode="&#xe2;" horiz-adv-x="948" d="M-43 141q0 76 33 154t85 150.5t118.5 136t132 110.5t126 75t101.5 28q35 0 60.5 -22.5t35.5 -55.5q18 35 29 65h135q-14 -27 -36.5 -84t-49.5 -128.5t-53.5 -146.5t-49 -139.5t-36 -109.5t-13.5 -55q0 -31 29 -44.5t55 -13.5q31 0 60 17.5t53.5 38t43 38t28.5 17.5 q12 0 12 -8q0 -6 -27.5 -37t-73.5 -64.5t-105.5 -60.5t-123.5 -27q-37 0 -77.5 21.5t-40.5 66.5q0 18 12 50t28.5 65t33 64.5t24.5 50.5l-4 4q-29 -45 -77 -101.5t-105.5 -105.5t-120 -82t-119.5 -33q-35 0 -58.5 15.5t-38 39t-20.5 53.5t-6 58zM117 160q0 -39 26.5 -62.5 t63.5 -23.5q47 0 92 28.5t85 70.5t70.5 90t47.5 85q6 16 23.5 53t33.5 77t29.5 75t13.5 45q0 25 -15.5 46.5t-38 37.5t-48 25.5t-45.5 9.5q-27 0 -44.5 -4t-29.5 -13.5t-22.5 -23.5t-26.5 -35q-35 -49 -73 -106.5t-69.5 -121t-52 -128t-20.5 -125.5zM297 887l303 348h101 l161 -348h-75l-150 213l-260 -213h-80z" />
<glyph unicode="&#xe3;" horiz-adv-x="948" d="M-43 141q0 76 33 154t85 150.5t118.5 136t132 110.5t126 75t101.5 28q35 0 60.5 -22.5t35.5 -55.5q18 35 29 65h135q-14 -27 -36.5 -84t-49.5 -128.5t-53.5 -146.5t-49 -139.5t-36 -109.5t-13.5 -55q0 -31 29 -44.5t55 -13.5q31 0 60 17.5t53.5 38t43 38t28.5 17.5 q12 0 12 -8q0 -6 -27.5 -37t-73.5 -64.5t-105.5 -60.5t-123.5 -27q-37 0 -77.5 21.5t-40.5 66.5q0 18 12 50t28.5 65t33 64.5t24.5 50.5l-4 4q-29 -45 -77 -101.5t-105.5 -105.5t-120 -82t-119.5 -33q-35 0 -58.5 15.5t-38 39t-20.5 53.5t-6 58zM117 160q0 -39 26.5 -62.5 t63.5 -23.5q47 0 92 28.5t85 70.5t70.5 90t47.5 85q6 16 23.5 53t33.5 77t29.5 75t13.5 45q0 25 -15.5 46.5t-38 37.5t-48 25.5t-45.5 9.5q-27 0 -44.5 -4t-29.5 -13.5t-22.5 -23.5t-26.5 -35q-35 -49 -73 -106.5t-69.5 -121t-52 -128t-20.5 -125.5zM340 938q6 37 16.5 75 t30 69.5t49 52t74.5 20.5q37 0 76 -14.5t78 -30.5t75.5 -30.5t69.5 -14.5q43 0 58.5 27.5t25.5 62.5h53q-4 -33 -14 -70.5t-27.5 -69.5t-46 -52.5t-69.5 -20.5q-29 0 -72 15.5t-86 31.5q-45 16 -85 30.5t-63 14.5q-39 0 -58 -30.5t-30 -65.5h-55z" />
<glyph unicode="&#xe4;" horiz-adv-x="948" d="M-43 141q0 76 33 154t85 150.5t118.5 136t132 110.5t126 75t101.5 28q35 0 60.5 -22.5t35.5 -55.5q18 35 29 65h135q-14 -27 -36.5 -84t-49.5 -128.5t-53.5 -146.5t-49 -139.5t-36 -109.5t-13.5 -55q0 -31 29 -44.5t55 -13.5q31 0 60 17.5t53.5 38t43 38t28.5 17.5 q12 0 12 -8q0 -6 -27.5 -37t-73.5 -64.5t-105.5 -60.5t-123.5 -27q-37 0 -77.5 21.5t-40.5 66.5q0 18 12 50t28.5 65t33 64.5t24.5 50.5l-4 4q-29 -45 -77 -101.5t-105.5 -105.5t-120 -82t-119.5 -33q-35 0 -58.5 15.5t-38 39t-20.5 53.5t-6 58zM117 160q0 -39 26.5 -62.5 t63.5 -23.5q47 0 92 28.5t85 70.5t70.5 90t47.5 85q6 16 23.5 53t33.5 77t29.5 75t13.5 45q0 25 -15.5 46.5t-38 37.5t-48 25.5t-45.5 9.5q-27 0 -44.5 -4t-29.5 -13.5t-22.5 -23.5t-26.5 -35q-35 -49 -73 -106.5t-69.5 -121t-52 -128t-20.5 -125.5zM348 1024q0 39 30 67.5 t71 28.5q37 0 68.5 -28.5t31.5 -75.5q0 -39 -29.5 -67.5t-70.5 -28.5q-37 0 -69 28.5t-32 75.5zM711 1024q0 39 29.5 67.5t70.5 28.5q37 0 68.5 -28.5t31.5 -75.5q0 -39 -29.5 -67.5t-70.5 -28.5q-37 0 -68.5 28.5t-31.5 75.5z" />
<glyph unicode="&#xe5;" horiz-adv-x="948" d="M-43 141q0 76 33 154t85 150.5t118.5 136t132 110.5t126 75t101.5 28q35 0 60.5 -22.5t35.5 -55.5q18 35 29 65h135q-14 -27 -36.5 -84t-49.5 -128.5t-53.5 -146.5t-49 -139.5t-36 -109.5t-13.5 -55q0 -31 29 -44.5t55 -13.5q31 0 60 17.5t53.5 38t43 38t28.5 17.5 q12 0 12 -8q0 -6 -27.5 -37t-73.5 -64.5t-105.5 -60.5t-123.5 -27q-37 0 -77.5 21.5t-40.5 66.5q0 18 12 50t28.5 65t33 64.5t24.5 50.5l-4 4q-29 -45 -77 -101.5t-105.5 -105.5t-120 -82t-119.5 -33q-35 0 -58.5 15.5t-38 39t-20.5 53.5t-6 58zM117 160q0 -39 26.5 -62.5 t63.5 -23.5q47 0 92 28.5t85 70.5t70.5 90t47.5 85q6 16 23.5 53t33.5 77t29.5 75t13.5 45q0 25 -15.5 46.5t-38 37.5t-48 25.5t-45.5 9.5q-27 0 -44.5 -4t-29.5 -13.5t-22.5 -23.5t-26.5 -35q-35 -49 -73 -106.5t-69.5 -121t-52 -128t-20.5 -125.5zM428 1092 q0 43 16.5 79.5t44 64.5t64.5 43t78 15q43 0 80 -16t64.5 -44t43 -66t15.5 -78q0 -43 -16.5 -80t-44 -64.5t-64.5 -43t-78 -15.5q-43 0 -80 16.5t-64.5 44t-43 65.5t-15.5 79zM498 1092q0 -55 39 -95.5t94 -40.5t94 38t39 96q0 55 -39 95t-94 40t-94 -38t-39 -95z" />
<glyph unicode="&#xe6;" horiz-adv-x="1175" d="M-33 125q0 82 35 164t89 156.5t122 138t133.5 110.5t121.5 74t89 27q27 0 42 -8.5t24.5 -19.5t14.5 -24.5t7 -23.5h4l15 61h145l-41 -96l4 -4q25 20 49.5 40.5t51 37t56 27t66.5 10.5q45 0 72 -30t27 -71q0 -68 -49.5 -120t-118 -93t-142 -68.5t-122.5 -45.5 q-16 -35 -19.5 -66t-3.5 -68q0 -74 29.5 -112.5t105.5 -38.5q66 0 121 32.5t95 71.5t65.5 72t31.5 33q14 0 15 -12q0 -14 -40 -64.5t-102.5 -103t-139.5 -94.5t-152 -42q-92 0 -140.5 50.5t-48.5 142.5q0 23 2 48.5t13 43.5l-5 4q-20 -41 -66 -91t-103.5 -94t-117 -74 t-106.5 -30q-66 0 -97.5 44t-31.5 106zM127 170q0 -45 28.5 -68.5t69.5 -23.5q29 0 58.5 15.5t57.5 37t51.5 47t37.5 45.5q31 43 61.5 104.5t53 120t37 101.5t14.5 49q0 12 -7 29.5t-23.5 35t-42 30t-64.5 12.5q-57 0 -84 -33t-58 -78q-33 -45 -66.5 -100.5t-61 -111.5 t-45 -110.5t-17.5 -101.5zM672 412q33 10 78 33.5t86 56.5t69.5 70.5t28.5 76.5q0 23 -16.5 40.5t-38.5 17.5q-45 0 -80 -33t-60.5 -79t-42 -97.5t-24.5 -85.5z" />
<glyph unicode="&#xe7;" horiz-adv-x="681" d="M-108 -403l33 55q25 -10 60.5 -21.5t62.5 -11.5q20 0 43.5 4t44 14.5t33 28t12.5 45.5q0 41 -29 66.5t-68 25.5q-16 0 -34.5 -7t-34.5 -11l-21 16l127 199h72l-88 -137q16 2 30.5 4t30.5 2q59 0 108.5 -34t49.5 -99q0 -51 -21.5 -86t-56.5 -56.5t-79 -30.5t-89 -9 q-18 0 -43.5 3t-51.5 9t-50.5 13t-40.5 18zM-37 199q0 90 51.5 193.5t131 193.5t177 149.5t189.5 59.5q55 0 88 -38t33 -91q0 -45 -20.5 -84t-73.5 -39q-33 0 -53.5 17.5t-20.5 51.5q0 16 9 29.5t22 24.5q-10 35 -38 49t-63 14q-37 0 -70.5 -29.5t-62.5 -75.5t-52.5 -103.5 t-39.5 -114t-25.5 -106.5t-9.5 -81q0 -78 40 -120t118 -42q39 0 77 22.5t70.5 50.5t54 50.5t27.5 22.5t11.5 -2t5.5 -13q0 -12 -36 -47t-90.5 -71.5t-119 -65.5t-123.5 -29q-98 0 -152.5 65.5t-54.5 158.5z" />
<glyph unicode="&#xe8;" horiz-adv-x="681" d="M-51 154q0 66 26.5 139.5t70.5 144t101.5 135t120 114.5t125 79t117.5 29q98 0 98 -99q0 -68 -52 -121t-125 -92t-150.5 -63.5t-128.5 -36.5q-16 -31 -27.5 -78t-11.5 -80q0 -72 33.5 -115.5t111.5 -43.5q45 0 81 13t66.5 33.5t57 45t51.5 45.5q10 8 16.5 16t10.5 8 q14 0 14 -8q0 -10 -37 -50t-96.5 -83t-134 -77t-152.5 -34q-86 0 -136 46.5t-50 132.5zM166 424q37 6 87 28.5t95 55.5t77 74t32 84q0 29 -18.5 38t-47.5 9q-39 0 -75.5 -34t-67.5 -80t-51.5 -95t-30.5 -80zM264 1165q0 29 19.5 51.5t48.5 22.5q51 0 82 -45l219 -307h-64 l-264 217q-23 18 -32 30.5t-9 30.5z" />
<glyph unicode="&#xe9;" horiz-adv-x="681" d="M-51 154q0 66 26.5 139.5t70.5 144t101.5 135t120 114.5t125 79t117.5 29q98 0 98 -99q0 -68 -52 -121t-125 -92t-150.5 -63.5t-128.5 -36.5q-16 -31 -27.5 -78t-11.5 -80q0 -72 33.5 -115.5t111.5 -43.5q45 0 81 13t66.5 33.5t57 45t51.5 45.5q10 8 16.5 16t10.5 8 q14 0 14 -8q0 -10 -37 -50t-96.5 -83t-134 -77t-152.5 -34q-86 0 -136 46.5t-50 132.5zM166 424q37 6 87 28.5t95 55.5t77 74t32 84q0 29 -18.5 38t-47.5 9q-39 0 -75.5 -34t-67.5 -80t-51.5 -95t-30.5 -80zM410 887l305 323q8 8 21.5 16.5t33.5 8.5q29 0 51.5 -22.5 t22.5 -51.5q0 -35 -37 -59.5t-88 -59.5l-238 -155h-71z" />
<glyph unicode="&#xea;" horiz-adv-x="681" d="M-51 154q0 66 26.5 139.5t70.5 144t101.5 135t120 114.5t125 79t117.5 29q98 0 98 -99q0 -68 -52 -121t-125 -92t-150.5 -63.5t-128.5 -36.5q-16 -31 -27.5 -78t-11.5 -80q0 -72 33.5 -115.5t111.5 -43.5q45 0 81 13t66.5 33.5t57 45t51.5 45.5q10 8 16.5 16t10.5 8 q14 0 14 -8q0 -10 -37 -50t-96.5 -83t-134 -77t-152.5 -34q-86 0 -136 46.5t-50 132.5zM166 424q37 6 87 28.5t95 55.5t77 74t32 84q0 29 -18.5 38t-47.5 9q-39 0 -75.5 -34t-67.5 -80t-51.5 -95t-30.5 -80zM211 887l303 348h101l161 -348h-75l-150 213l-260 -213h-80z" />
<glyph unicode="&#xeb;" horiz-adv-x="681" d="M-51 154q0 66 26.5 139.5t70.5 144t101.5 135t120 114.5t125 79t117.5 29q98 0 98 -99q0 -68 -52 -121t-125 -92t-150.5 -63.5t-128.5 -36.5q-16 -31 -27.5 -78t-11.5 -80q0 -72 33.5 -115.5t111.5 -43.5q45 0 81 13t66.5 33.5t57 45t51.5 45.5q10 8 16.5 16t10.5 8 q14 0 14 -8q0 -10 -37 -50t-96.5 -83t-134 -77t-152.5 -34q-86 0 -136 46.5t-50 132.5zM166 424q37 6 87 28.5t95 55.5t77 74t32 84q0 29 -18.5 38t-47.5 9q-39 0 -75.5 -34t-67.5 -80t-51.5 -95t-30.5 -80zM262 1024q0 39 30 67.5t71 28.5q37 0 68.5 -28.5t31.5 -75.5 q0 -39 -29.5 -67.5t-70.5 -28.5q-37 0 -69 28.5t-32 75.5zM625 1024q0 39 29.5 67.5t70.5 28.5q37 0 68.5 -28.5t31.5 -75.5q0 -39 -29.5 -67.5t-70.5 -28.5q-37 0 -68.5 28.5t-31.5 75.5z" />
<glyph unicode="&#xec;" horiz-adv-x="530" d="M2 94q0 14 19.5 68.5t52 144.5t78 213t96.5 275h158q-16 -57 -55.5 -149.5t-78.5 -190t-68.5 -184.5t-29.5 -134q0 -31 27.5 -49t56.5 -18q41 0 77 22.5t65.5 50t51 50t29.5 22.5q10 0 11 -12q0 -10 -32 -47t-81 -77t-108.5 -72t-114.5 -32q-25 0 -51.5 7.5t-50 22.5 t-38 38t-14.5 51zM123 1165q0 29 19.5 51.5t48.5 22.5q51 0 82 -45l219 -307h-64l-264 217q-23 18 -32 30.5t-9 30.5z" />
<glyph unicode="&#xed;" horiz-adv-x="530" d="M2 94q0 14 19.5 68.5t52 144.5t78 213t96.5 275h158q-16 -57 -55.5 -149.5t-78.5 -190t-68.5 -184.5t-29.5 -134q0 -31 27.5 -49t56.5 -18q41 0 77 22.5t65.5 50t51 50t29.5 22.5q10 0 11 -12q0 -10 -32 -47t-81 -77t-108.5 -72t-114.5 -32q-25 0 -51.5 7.5t-50 22.5 t-38 38t-14.5 51zM269 887l305 323q8 8 21.5 16.5t33.5 8.5q29 0 51.5 -22.5t22.5 -51.5q0 -35 -37 -59.5t-88 -59.5l-238 -155h-71z" />
<glyph unicode="&#xee;" horiz-adv-x="530" d="M2 94q0 14 19.5 68.5t52 144.5t78 213t96.5 275h158q-16 -57 -55.5 -149.5t-78.5 -190t-68.5 -184.5t-29.5 -134q0 -31 27.5 -49t56.5 -18q41 0 77 22.5t65.5 50t51 50t29.5 22.5q10 0 11 -12q0 -10 -32 -47t-81 -77t-108.5 -72t-114.5 -32q-25 0 -51.5 7.5t-50 22.5 t-38 38t-14.5 51zM70 887l303 348h101l161 -348h-75l-150 213l-260 -213h-80z" />
<glyph unicode="&#xef;" horiz-adv-x="530" d="M2 94q0 14 19.5 68.5t52 144.5t78 213t96.5 275h158q-16 -57 -55.5 -149.5t-78.5 -190t-68.5 -184.5t-29.5 -134q0 -31 27.5 -49t56.5 -18q41 0 77 22.5t65.5 50t51 50t29.5 22.5q10 0 11 -12q0 -10 -32 -47t-81 -77t-108.5 -72t-114.5 -32q-25 0 -51.5 7.5t-50 22.5 t-38 38t-14.5 51zM121 1024q0 39 30 67.5t71 28.5q37 0 68.5 -28.5t31.5 -75.5q0 -39 -29.5 -67.5t-70.5 -28.5q-37 0 -69 28.5t-32 75.5zM484 1024q0 39 29.5 67.5t70.5 28.5q37 0 68.5 -28.5t31.5 -75.5q0 -39 -29.5 -67.5t-70.5 -28.5q-37 0 -68.5 28.5t-31.5 75.5z" />
<glyph unicode="&#xf0;" horiz-adv-x="833" d="M-20 176q0 102 36.5 189.5t96 158t130 124.5t140.5 91t127 56.5t88 19.5q16 0 16 -12q0 -8 -15 -13.5t-50 -17.5q-80 -29 -153.5 -90t-130 -141t-91.5 -170t-35 -174q0 -25 3 -52.5t13.5 -50t30 -38t50.5 -15.5q63 0 121.5 57.5t109.5 150.5t93 211t73 237.5t47 233 t16 195.5l-239 -79l-27 61l260 86q-6 47 -22.5 90t-44 76t-68.5 51.5t-100 18.5q-86 0 -146.5 -33t-99.5 -73t-60.5 -73.5t-31.5 -33.5q-12 0 -13 12q0 8 25 45t72 78t115.5 73.5t156.5 32.5q129 0 210 -63.5t120 -163.5l235 78l27 -62l-244 -80q18 -70 19 -151 q0 -121 -32 -246t-84 -240.5t-122 -217t-146.5 -176.5t-154.5 -118t-149 -43q-90 0 -131 58.5t-41 142.5z" />
<glyph unicode="&#xf1;" horiz-adv-x="985" d="M-29 0q59 195 124 385t130 385h156l-143 -389l4 -4q29 55 76 126.5t105 136.5t125.5 110t137.5 45q27 0 53.5 -7.5t48 -20.5t35 -35.5t13.5 -53.5q0 -25 -14.5 -70t-37 -98t-48 -111.5t-48 -110.5t-37 -94t-14.5 -63q0 -29 20.5 -45t47.5 -16q29 0 53 11t44.5 24.5 t35 24.5t22.5 11q4 0 8 -3t4 -9t-26.5 -28.5t-67.5 -47t-90 -43t-92 -18.5q-47 0 -89 21.5t-42 74.5q0 25 14.5 68t37 95t48 109.5t48 109.5t37 96t14.5 69q0 70 -74 70q-47 0 -96.5 -36t-96.5 -95.5t-92 -134t-83 -152.5t-66.5 -153t-46.5 -134h-138zM334 938q6 37 16.5 75 t30 69.5t49 52t74.5 20.5q37 0 76 -14.5t78 -30.5t75.5 -30.5t69.5 -14.5q43 0 58.5 27.5t25.5 62.5h53q-4 -33 -14 -70.5t-27.5 -69.5t-46 -52.5t-69.5 -20.5q-29 0 -72 15.5t-86 31.5q-45 16 -85 30.5t-63 14.5q-39 0 -58 -30.5t-30 -65.5h-55z" />
<glyph unicode="&#xf2;" horiz-adv-x="796" d="M-39 164q0 68 27.5 141.5t74 144t105.5 133t122.5 109.5t127 75t114.5 28q53 0 87 -14.5t54.5 -39t28 -59.5t7.5 -76q0 -68 -23.5 -141.5t-65.5 -144t-97.5 -133t-119 -109.5t-132 -75t-134.5 -28q-53 0 -87 14.5t-54.5 39t-27.5 59.5t-7 76zM121 141q0 -117 115 -116 q47 0 89 33.5t76.5 88t61 121t46 132t30 122t10.5 90.5q0 117 -115 117q-47 0 -89 -33.5t-77 -88t-61.5 -121t-46 -132t-29.5 -122t-10 -91.5zM299 1165q0 29 19.5 51.5t48.5 22.5q51 0 82 -45l219 -307h-64l-264 217q-23 18 -32 30.5t-9 30.5z" />
<glyph unicode="&#xf3;" horiz-adv-x="796" d="M-39 164q0 68 27.5 141.5t74 144t105.5 133t122.5 109.5t127 75t114.5 28q53 0 87 -14.5t54.5 -39t28 -59.5t7.5 -76q0 -68 -23.5 -141.5t-65.5 -144t-97.5 -133t-119 -109.5t-132 -75t-134.5 -28q-53 0 -87 14.5t-54.5 39t-27.5 59.5t-7 76zM121 141q0 -117 115 -116 q47 0 89 33.5t76.5 88t61 121t46 132t30 122t10.5 90.5q0 117 -115 117q-47 0 -89 -33.5t-77 -88t-61.5 -121t-46 -132t-29.5 -122t-10 -91.5zM445 887l305 323q8 8 21.5 16.5t33.5 8.5q29 0 51.5 -22.5t22.5 -51.5q0 -35 -37 -59.5t-88 -59.5l-238 -155h-71z" />
<glyph unicode="&#xf4;" horiz-adv-x="796" d="M-39 164q0 68 27.5 141.5t74 144t105.5 133t122.5 109.5t127 75t114.5 28q53 0 87 -14.5t54.5 -39t28 -59.5t7.5 -76q0 -68 -23.5 -141.5t-65.5 -144t-97.5 -133t-119 -109.5t-132 -75t-134.5 -28q-53 0 -87 14.5t-54.5 39t-27.5 59.5t-7 76zM121 141q0 -117 115 -116 q47 0 89 33.5t76.5 88t61 121t46 132t30 122t10.5 90.5q0 117 -115 117q-47 0 -89 -33.5t-77 -88t-61.5 -121t-46 -132t-29.5 -122t-10 -91.5zM246 887l303 348h101l161 -348h-75l-150 213l-260 -213h-80z" />
<glyph unicode="&#xf5;" horiz-adv-x="796" d="M-39 164q0 68 27.5 141.5t74 144t105.5 133t122.5 109.5t127 75t114.5 28q53 0 87 -14.5t54.5 -39t28 -59.5t7.5 -76q0 -68 -23.5 -141.5t-65.5 -144t-97.5 -133t-119 -109.5t-132 -75t-134.5 -28q-53 0 -87 14.5t-54.5 39t-27.5 59.5t-7 76zM121 141q0 -117 115 -116 q47 0 89 33.5t76.5 88t61 121t46 132t30 122t10.5 90.5q0 117 -115 117q-47 0 -89 -33.5t-77 -88t-61.5 -121t-46 -132t-29.5 -122t-10 -91.5zM289 938q6 37 16.5 75t30 69.5t49 52t74.5 20.5q37 0 76 -14.5t78 -30.5t75.5 -30.5t69.5 -14.5q43 0 58.5 27.5t25.5 62.5h53 q-4 -33 -14 -70.5t-27.5 -69.5t-46 -52.5t-69.5 -20.5q-29 0 -72 15.5t-86 31.5q-45 16 -85 30.5t-63 14.5q-39 0 -58 -30.5t-30 -65.5h-55z" />
<glyph unicode="&#xf6;" horiz-adv-x="796" d="M-39 164q0 68 27.5 141.5t74 144t105.5 133t122.5 109.5t127 75t114.5 28q53 0 87 -14.5t54.5 -39t28 -59.5t7.5 -76q0 -68 -23.5 -141.5t-65.5 -144t-97.5 -133t-119 -109.5t-132 -75t-134.5 -28q-53 0 -87 14.5t-54.5 39t-27.5 59.5t-7 76zM121 141q0 -117 115 -116 q47 0 89 33.5t76.5 88t61 121t46 132t30 122t10.5 90.5q0 117 -115 117q-47 0 -89 -33.5t-77 -88t-61.5 -121t-46 -132t-29.5 -122t-10 -91.5zM297 1024q0 39 30 67.5t71 28.5q37 0 68.5 -28.5t31.5 -75.5q0 -39 -29.5 -67.5t-70.5 -28.5q-37 0 -69 28.5t-32 75.5zM660 1024 q0 39 29.5 67.5t70.5 28.5q37 0 68.5 -28.5t31.5 -75.5q0 -39 -29.5 -67.5t-70.5 -28.5q-37 0 -68.5 28.5t-31.5 75.5z" />
<glyph unicode="&#xf7;" horiz-adv-x="1024" d="M90 334v102h766v-102h-766zM375 74q0 39 29.5 67.5t68.5 28.5q37 0 66.5 -28.5t29.5 -67.5t-29.5 -69t-66.5 -30q-39 0 -68.5 30t-29.5 69zM375 698q0 39 29.5 68t68.5 29q37 0 66.5 -29t29.5 -68t-29.5 -68.5t-66.5 -29.5q-39 0 -68.5 29.5t-29.5 68.5z" />
<glyph unicode="&#xf8;" horiz-adv-x="796" d="M-162 -174l162 199q-23 25 -31 60.5t-8 78.5q0 68 27.5 141.5t74 144t105.5 133t122.5 109.5t127 75t114.5 28t91 -15l118 144h68l-143 -174q25 -27 34 -63t9 -81q0 -68 -23.5 -141.5t-65.5 -144t-97.5 -133t-119 -109.5t-132 -75t-134.5 -28q-59 0 -94 19l-137 -168h-68 zM123 178l4 -4l410 500q-27 55 -103 55q-43 0 -83 -29.5t-72.5 -78t-60.5 -109.5t-47 -121.5t-31.5 -117t-16.5 -95.5zM127 96q18 -72 109 -71q47 0 88 33.5t75.5 87t62 119t47 130t30 120.5t10.5 89l-4 4z" />
<glyph unicode="&#xf9;" horiz-adv-x="985" d="M-6 78q0 43 27.5 125t66.5 180t81 200.5t71 186.5h151q-18 -51 -56 -142t-76 -186.5t-65.5 -177.5t-27.5 -117q0 -41 19.5 -57t56.5 -16q31 0 67.5 20.5t73.5 54t71.5 75.5t61.5 85q68 109 112 225.5t91 235.5h151q-10 -25 -30.5 -78t-47 -118.5t-54 -138.5t-50 -137.5 t-37 -114.5t-14.5 -70q0 -35 21.5 -45.5t52.5 -10.5t65.5 19.5t63 44t48 44t21.5 19.5q10 0 11 -10q0 -2 -27 -33.5t-71 -68.5t-104.5 -67t-127.5 -30q-18 0 -39 6.5t-38 17.5t-29.5 27.5t-12.5 36.5q0 12 14.5 54.5t33 91.5t35.5 93t24 58l-5 5q-23 -53 -75 -121 t-117.5 -127.5t-136 -100.5t-131.5 -41q-51 0 -85 25t-34 78zM368 1165q0 29 19.5 51.5t48.5 22.5q51 0 82 -45l219 -307h-64l-264 217q-23 18 -32 30.5t-9 30.5z" />
<glyph unicode="&#xfa;" horiz-adv-x="985" d="M-6 78q0 43 27.5 125t66.5 180t81 200.5t71 186.5h151q-18 -51 -56 -142t-76 -186.5t-65.5 -177.5t-27.5 -117q0 -41 19.5 -57t56.5 -16q31 0 67.5 20.5t73.5 54t71.5 75.5t61.5 85q68 109 112 225.5t91 235.5h151q-10 -25 -30.5 -78t-47 -118.5t-54 -138.5t-50 -137.5 t-37 -114.5t-14.5 -70q0 -35 21.5 -45.5t52.5 -10.5t65.5 19.5t63 44t48 44t21.5 19.5q10 0 11 -10q0 -2 -27 -33.5t-71 -68.5t-104.5 -67t-127.5 -30q-18 0 -39 6.5t-38 17.5t-29.5 27.5t-12.5 36.5q0 12 14.5 54.5t33 91.5t35.5 93t24 58l-5 5q-23 -53 -75 -121 t-117.5 -127.5t-136 -100.5t-131.5 -41q-51 0 -85 25t-34 78zM514 887l305 323q8 8 21.5 16.5t33.5 8.5q29 0 51.5 -22.5t22.5 -51.5q0 -35 -37 -59.5t-88 -59.5l-238 -155h-71z" />
<glyph unicode="&#xfb;" horiz-adv-x="985" d="M-6 78q0 43 27.5 125t66.5 180t81 200.5t71 186.5h151q-18 -51 -56 -142t-76 -186.5t-65.5 -177.5t-27.5 -117q0 -41 19.5 -57t56.5 -16q31 0 67.5 20.5t73.5 54t71.5 75.5t61.5 85q68 109 112 225.5t91 235.5h151q-10 -25 -30.5 -78t-47 -118.5t-54 -138.5t-50 -137.5 t-37 -114.5t-14.5 -70q0 -35 21.5 -45.5t52.5 -10.5t65.5 19.5t63 44t48 44t21.5 19.5q10 0 11 -10q0 -2 -27 -33.5t-71 -68.5t-104.5 -67t-127.5 -30q-18 0 -39 6.5t-38 17.5t-29.5 27.5t-12.5 36.5q0 12 14.5 54.5t33 91.5t35.5 93t24 58l-5 5q-23 -53 -75 -121 t-117.5 -127.5t-136 -100.5t-131.5 -41q-51 0 -85 25t-34 78zM315 887l303 348h101l161 -348h-75l-150 213l-260 -213h-80z" />
<glyph unicode="&#xfc;" horiz-adv-x="985" d="M-6 78q0 43 27.5 125t66.5 180t81 200.5t71 186.5h151q-18 -51 -56 -142t-76 -186.5t-65.5 -177.5t-27.5 -117q0 -41 19.5 -57t56.5 -16q31 0 67.5 20.5t73.5 54t71.5 75.5t61.5 85q68 109 112 225.5t91 235.5h151q-10 -25 -30.5 -78t-47 -118.5t-54 -138.5t-50 -137.5 t-37 -114.5t-14.5 -70q0 -35 21.5 -45.5t52.5 -10.5t65.5 19.5t63 44t48 44t21.5 19.5q10 0 11 -10q0 -2 -27 -33.5t-71 -68.5t-104.5 -67t-127.5 -30q-18 0 -39 6.5t-38 17.5t-29.5 27.5t-12.5 36.5q0 12 14.5 54.5t33 91.5t35.5 93t24 58l-5 5q-23 -53 -75 -121 t-117.5 -127.5t-136 -100.5t-131.5 -41q-51 0 -85 25t-34 78zM366 1024q0 39 30 67.5t71 28.5q37 0 68.5 -28.5t31.5 -75.5q0 -39 -29.5 -67.5t-70.5 -28.5q-37 0 -69 28.5t-32 75.5zM729 1024q0 39 29.5 67.5t70.5 28.5q37 0 68.5 -28.5t31.5 -75.5q0 -39 -29.5 -67.5 t-70.5 -28.5q-37 0 -68.5 28.5t-31.5 75.5z" />
<glyph unicode="&#xfd;" d="M-121 -311q0 45 29 65.5t69 20.5q43 0 60.5 -22.5t29 -49.5t27 -49.5t53.5 -22.5q55 0 96.5 26t70 65.5t51 87t41.5 90.5q35 80 67.5 160.5t67.5 160.5l-4 4q-16 -23 -44 -60.5t-62 -74.5t-69.5 -63.5t-66.5 -26.5q-61 0 -85 27.5t-24 109.5q0 111 5.5 197t5.5 180 q0 61 -3.5 96t-13.5 53.5t-27.5 23.5t-48.5 5q-27 0 -48 -13t-37.5 -29.5t-29 -30t-20.5 -13.5q-6 0 -6 6q0 10 23.5 39t60.5 61.5t82 57.5t88 25q68 0 95.5 -27t27.5 -88q0 -31 -9 -136.5t-9 -271.5q0 -47 2 -75.5t10 -45t21.5 -22.5t35.5 -6q37 0 74 40t70.5 102.5 t64.5 138t56.5 147.5t46 131t32.5 88h148q-53 -117 -96.5 -239.5t-88.5 -244.5t-98 -241t-129 -227q-31 -45 -79 -91t-103.5 -83t-115.5 -59.5t-118 -22.5q-29 0 -59.5 7t-57 22.5t-43 39t-16.5 58.5zM453 887l305 323q8 8 21.5 16.5t33.5 8.5q29 0 51.5 -22.5t22.5 -51.5 q0 -35 -37 -59.5t-88 -59.5l-238 -155h-71z" />
<glyph unicode="&#xfe;" horiz-adv-x="872" d="M-203 -479q35 94 89.5 250.5t134 392t188 555t250.5 739.5h151l-311 -893l4 -4q27 41 56.5 83t65.5 76t79 54.5t98 20.5q88 0 130 -60.5t42 -140.5q0 -68 -26.5 -140.5t-69.5 -141t-99.5 -130t-118 -107.5t-121.5 -73t-112 -27q-35 0 -59.5 9.5t-56.5 19.5l-168 -483 h-146zM170 164q0 -53 40 -92t93 -39q45 0 86 32.5t75 85t62.5 117t48 128t29.5 117.5t10 87q0 109 -112 109q-45 0 -88 -36t-80 -92.5t-66.5 -123t-51 -127t-34 -106.5t-12.5 -60z" />
<glyph unicode="&#xff;" d="M-121 -311q0 45 29 65.5t69 20.5q43 0 60.5 -22.5t29 -49.5t27 -49.5t53.5 -22.5q55 0 96.5 26t70 65.5t51 87t41.5 90.5q35 80 67.5 160.5t67.5 160.5l-4 4q-16 -23 -44 -60.5t-62 -74.5t-69.5 -63.5t-66.5 -26.5q-61 0 -85 27.5t-24 109.5q0 111 5.5 197t5.5 180 q0 61 -3.5 96t-13.5 53.5t-27.5 23.5t-48.5 5q-27 0 -48 -13t-37.5 -29.5t-29 -30t-20.5 -13.5q-6 0 -6 6q0 10 23.5 39t60.5 61.5t82 57.5t88 25q68 0 95.5 -27t27.5 -88q0 -31 -9 -136.5t-9 -271.5q0 -47 2 -75.5t10 -45t21.5 -22.5t35.5 -6q37 0 74 40t70.5 102.5 t64.5 138t56.5 147.5t46 131t32.5 88h148q-53 -117 -96.5 -239.5t-88.5 -244.5t-98 -241t-129 -227q-31 -45 -79 -91t-103.5 -83t-115.5 -59.5t-118 -22.5q-29 0 -59.5 7t-57 22.5t-43 39t-16.5 58.5zM305 1024q0 39 30 67.5t71 28.5q37 0 68.5 -28.5t31.5 -75.5 q0 -39 -29.5 -67.5t-70.5 -28.5q-37 0 -69 28.5t-32 75.5zM668 1024q0 39 29.5 67.5t70.5 28.5q37 0 68.5 -28.5t31.5 -75.5q0 -39 -29.5 -67.5t-70.5 -28.5q-37 0 -68.5 28.5t-31.5 75.5z" />
<glyph unicode="&#x152;" horiz-adv-x="1972" d="M115 403q0 119 33.5 236t95 223.5t144.5 197.5t180.5 157.5t207 104.5t219.5 38q55 0 117 -4t94 -13q12 -2 41 -5t64 -4t71.5 -2t67.5 -1q133 0 263 1t263 7q-2 -45 -4 -91t-2 -93t2 -95t4 -95h-24q-29 47 -47.5 79.5t-30.5 65.5t-21.5 70t-21.5 90l-387 12 q-53 -137 -101.5 -274.5t-95.5 -274.5q121 0 190.5 7.5t114.5 30t80 68.5t90 126h27q-119 -279 -209 -572h-27q0 37 5.5 89.5t5.5 99.5q0 63 -13.5 82.5t-44.5 19.5h-233q-57 -152 -108.5 -302.5t-100.5 -301.5q45 -4 115.5 -12.5t147.5 -15.5t149.5 -13t124.5 -6 q74 96 148.5 184t162.5 160l16 -21q-47 -88 -81.5 -180t-71.5 -184q-27 2 -78 3t-117.5 2t-142.5 1q-74 0 -144.5 1t-134.5 1h-106q-59 0 -115.5 -6t-114 -14.5t-114 -14.5t-113.5 -6q-207 0 -323.5 118t-116.5 326zM303 410q0 -188 78 -297t248 -109q61 0 99 11.5t64.5 36 t46 62.5t42.5 91q12 31 42.5 112.5t68.5 188t79 223.5t75 217.5t55.5 172t21.5 87.5q0 35 -31 55.5t-71 33t-80 16.5t-58 4q-104 0 -196.5 -44t-168 -118t-134 -168t-98.5 -194.5t-61.5 -199.5t-21.5 -181z" />
<glyph unicode="&#x153;" horiz-adv-x="1175" d="M-8 164q0 100 54 209.5t139 202t189.5 151.5t207.5 59q35 0 58.5 -14t39.5 -37.5t23.5 -53.5t7.5 -60q23 25 53.5 53t66 53t73.5 42t71 17q96 0 96 -94q0 -68 -46 -123t-112.5 -97t-138.5 -71.5t-125 -46.5q-16 -39 -20 -71.5t-4 -73.5q0 -135 137 -135q63 0 118.5 32.5 t97.5 72.5t66.5 73t28.5 33t8 -2t4 -13q0 -10 -17 -37.5t-48 -61.5t-73 -69.5t-90 -65.5t-100 -49.5t-104 -19.5q-80 0 -124 46t-60 120q-25 -31 -61.5 -60.5t-79.5 -53t-88 -38t-84 -14.5q-90 0 -127 58.5t-37 138.5zM152 174q0 -25 2 -49.5t11 -45t26.5 -33.5t48.5 -13 q47 0 88 30.5t75.5 81t62.5 111.5t46 123.5t28.5 119t10.5 93.5q0 59 -18.5 94t-86.5 35q-39 0 -76.5 -32t-70.5 -82t-59.5 -112.5t-46 -123t-30.5 -112.5t-11 -85zM659 401q33 6 78 28t85 54.5t69 74.5t29 89q0 16 -16.5 30.5t-33.5 14.5q-43 0 -78.5 -31.5t-63.5 -77.5 t-45 -96.5t-24 -85.5z" />
<glyph unicode="&#x178;" horiz-adv-x="1290" d="M109 -8v28q84 12 136 22.5t83.5 28t50 46t37.5 78.5l166 456q-14 43 -39 125t-52.5 172t-57.5 170t-56 119q-8 14 -37 26.5t-61.5 22.5t-63.5 16.5t-45 8.5v28q76 -4 149.5 -6t149.5 -2q78 0 154.5 2t154.5 6v-28q-31 -2 -63.5 -7.5t-60 -14.5t-45 -23.5t-17.5 -36.5 q0 -20 17.5 -89t41 -152t47 -165t37.5 -131q18 20 59.5 63.5t92.5 98.5t105.5 115.5t99.5 113t73.5 91t28.5 49.5q0 23 -29.5 38t-67.5 25t-73 16.5t-47 8.5v28q72 -2 143.5 -5t143.5 -3q55 0 110.5 3t110.5 5v-28q-23 -16 -73 -56.5t-115.5 -93.5t-140.5 -117.5 t-148.5 -132t-140 -135t-115.5 -129.5q-18 -63 -47 -144t-55.5 -159t-45 -142.5t-18.5 -95.5q0 -18 27.5 -31.5t69.5 -22.5t92 -17t97 -15v-28q-12 4 -114.5 6t-288.5 2q-45 0 -96 -1t-99.5 -2t-91.5 -2t-73 -3zM667 1544q0 39 30 67.5t71 28.5q37 0 68.5 -28.5t31.5 -75.5 q0 -39 -29.5 -67.5t-70.5 -28.5q-37 0 -69 28.5t-32 75.5zM1030 1544q0 39 29.5 67.5t70.5 28.5q37 0 68.5 -28.5t31.5 -75.5q0 -39 -29.5 -67.5t-70.5 -28.5q-37 0 -68.5 28.5t-31.5 75.5z" />
<glyph unicode="&#x2c6;" horiz-adv-x="530" d="M88 887l303 348h101l161 -348h-75l-150 213l-260 -213h-80z" />
<glyph unicode="&#x2dc;" horiz-adv-x="530" d="M131 938q6 37 16.5 75t30 69.5t49 52t74.5 20.5q37 0 76 -14.5t78 -30.5t75.5 -30.5t69.5 -14.5q43 0 58.5 27.5t25.5 62.5h53q-4 -33 -14 -70.5t-27.5 -69.5t-46 -52.5t-69.5 -20.5q-29 0 -72 15.5t-86 31.5q-45 16 -85 30.5t-63 14.5q-39 0 -58 -30.5t-30 -65.5h-55z " />
<glyph unicode="&#x2000;" horiz-adv-x="907" />
<glyph unicode="&#x2001;" horiz-adv-x="1814" />
<glyph unicode="&#x2002;" horiz-adv-x="907" />
<glyph unicode="&#x2003;" horiz-adv-x="1814" />
<glyph unicode="&#x2004;" horiz-adv-x="604" />
<glyph unicode="&#x2005;" horiz-adv-x="453" />
<glyph unicode="&#x2006;" horiz-adv-x="302" />
<glyph unicode="&#x2007;" horiz-adv-x="302" />
<glyph unicode="&#x2008;" horiz-adv-x="226" />
<glyph unicode="&#x2009;" horiz-adv-x="362" />
<glyph unicode="&#x200a;" horiz-adv-x="100" />
<glyph unicode="&#x2010;" horiz-adv-x="681" d="M51 299q10 29 23.5 62.5t23.5 70.5q2 6 33 12.5t55 6.5q47 0 93.5 -7.5t93.5 -7.5q51 0 76.5 2t42 6.5t31 8.5t40.5 8l-57 -139q-37 -6 -76 -7q-55 0 -110.5 9.5t-110.5 9.5q-47 0 -82 -7.5t-76 -27.5z" />
<glyph unicode="&#x2011;" horiz-adv-x="681" d="M51 299q10 29 23.5 62.5t23.5 70.5q2 6 33 12.5t55 6.5q47 0 93.5 -7.5t93.5 -7.5q51 0 76.5 2t42 6.5t31 8.5t40.5 8l-57 -139q-37 -6 -76 -7q-55 0 -110.5 9.5t-110.5 9.5q-47 0 -82 -7.5t-76 -27.5z" />
<glyph unicode="&#x2012;" horiz-adv-x="681" d="M51 299q10 29 23.5 62.5t23.5 70.5q2 6 33 12.5t55 6.5q47 0 93.5 -7.5t93.5 -7.5q51 0 76.5 2t42 6.5t31 8.5t40.5 8l-57 -139q-37 -6 -76 -7q-55 0 -110.5 9.5t-110.5 9.5q-47 0 -82 -7.5t-76 -27.5z" />
<glyph unicode="&#x2013;" horiz-adv-x="1024" d="M-23 334l33 102h1024l-33 -102h-1024z" />
<glyph unicode="&#x2014;" horiz-adv-x="2048" d="M262 233q20 53 40 105.5t32 105.5q31 -4 62.5 -6t62.5 -2h1145q63 0 95 23.5t60 77.5h27q-20 -53 -40 -105.5t-32 -105.5q-31 4 -62.5 6t-62.5 2h-1145q-63 0 -95 -23.5t-60 -77.5h-27z" />
<glyph unicode="&#x2018;" horiz-adv-x="454" d="M250 1081q0 66 36 122.5t89 102.5t115.5 80.5t115.5 59.5l17 -21q-35 -20 -73 -46.5t-68.5 -59.5t-51 -71t-20.5 -83q0 -33 25.5 -57.5t56.5 -28.5v-6q-35 -33 -70 -57.5t-84 -24.5q-37 0 -62.5 26.5t-25.5 63.5z" />
<glyph unicode="&#x2019;" horiz-adv-x="454" d="M215 991q35 23 73 48.5t68.5 58t51 70.5t20.5 83q0 33 -25.5 57.5t-56.5 28.5v6q35 33 70 57.5t84 24.5q37 0 62.5 -26.5t25.5 -63.5q0 -66 -36 -122t-89 -102t-115.5 -81t-116.5 -59z" />
<glyph unicode="&#x201a;" horiz-adv-x="454" d="M-197 -221q35 20 73 47t68.5 59.5t51 70.5t20.5 83q0 33 -25.5 57.5t-56.5 28.5v6q35 33 70 57.5t84 24.5q37 0 62.5 -26.5t25.5 -63.5q0 -66 -36 -122t-89 -102t-115.5 -81t-115.5 -60z" />
<glyph unicode="&#x201c;" horiz-adv-x="796" d="M250 1081q0 66 36 122.5t89 102.5t115.5 80.5t115.5 59.5l17 -21q-35 -20 -73 -46.5t-68.5 -59.5t-51 -71t-20.5 -83q0 -33 25.5 -57.5t56.5 -28.5v-6q-35 -33 -70 -57.5t-84 -24.5q-37 0 -62.5 26.5t-25.5 63.5zM592 1081q0 66 36 122.5t89 102.5t115.5 80.5t115.5 59.5 l17 -21q-35 -20 -73 -46.5t-68.5 -59.5t-51 -71t-20.5 -83q0 -33 25.5 -57.5t56.5 -28.5v-6q-35 -33 -70 -57.5t-84 -24.5q-37 0 -62.5 26.5t-25.5 63.5z" />
<glyph unicode="&#x201d;" horiz-adv-x="796" d="M215 991q35 23 73 48.5t68.5 58t51 70.5t20.5 83q0 33 -25.5 57.5t-56.5 28.5v6q35 33 70 57.5t84 24.5q37 0 62.5 -26.5t25.5 -63.5q0 -66 -36 -122t-89 -102t-115.5 -81t-116.5 -59zM557 991q35 23 73 48.5t68.5 58t51 70.5t20.5 83q0 33 -25.5 57.5t-56.5 28.5v6 q35 33 70 57.5t84 24.5q37 0 62.5 -26.5t25.5 -63.5q0 -66 -36 -122t-89 -102t-115.5 -81t-116.5 -59z" />
<glyph unicode="&#x201e;" horiz-adv-x="796" d="M-197 -221q35 20 73 47t68.5 59.5t51 70.5t20.5 83q0 33 -25.5 57.5t-56.5 28.5v6q35 33 70 57.5t84 24.5q37 0 62.5 -26.5t25.5 -63.5q0 -66 -36 -122t-89 -102t-115.5 -81t-115.5 -60zM145 -221q35 20 73 47t68.5 59.5t51 70.5t20.5 83q0 33 -25.5 57.5t-56.5 28.5v6 q35 33 70 57.5t84 24.5q37 0 62.5 -26.5t25.5 -63.5q0 -66 -36 -122t-89 -102t-115.5 -81t-115.5 -60z" />
<glyph unicode="&#x2022;" horiz-adv-x="1024" d="M180 666q0 70 25.5 130t71 105t106.5 70.5t131 25.5t130.5 -25.5t105.5 -70.5t70.5 -105.5t25.5 -129.5q0 -70 -25.5 -130.5t-70.5 -105.5t-105.5 -71.5t-130.5 -26.5t-131 26.5t-106.5 71.5t-71 105.5t-25.5 130.5z" />
<glyph unicode="&#x2026;" horiz-adv-x="2048" d="M133 109q0 59 34 103t91 44q43 0 69.5 -28.5t26.5 -77.5q0 -59 -33.5 -103.5t-91.5 -44.5q-43 0 -69.5 28.5t-26.5 78.5zM815 106q0 59 34 103.5t91 44.5q43 0 69.5 -28.5t26.5 -78.5q0 -59 -33.5 -103t-91.5 -44q-43 0 -69.5 28.5t-26.5 77.5zM1497 106q0 59 34 103.5 t91 44.5q43 0 69.5 -28.5t26.5 -78.5q0 -59 -33.5 -103t-91.5 -44q-43 0 -69.5 28.5t-26.5 77.5z" />
<glyph unicode="&#x202f;" horiz-adv-x="362" />
<glyph unicode="&#x2039;" horiz-adv-x="569" d="M72 412q0 16 27.5 39.5t76.5 57.5t116.5 80t147.5 103l25 -20l-270 -277q20 -76 48.5 -146.5t59.5 -142.5l-31 -28q-37 61 -72.5 115.5t-64.5 97.5t-46 73.5t-17 47.5z" />
<glyph unicode="&#x203a;" horiz-adv-x="569" d="M-12 98l270 277q-20 76 -49 146.5t-59 142.5l30 28q37 -61 73 -115.5t64.5 -97.5t46 -73.5t17.5 -47.5q0 -16 -27.5 -39.5t-77 -57.5t-117 -79t-147.5 -104z" />
<glyph unicode="&#x205f;" horiz-adv-x="453" />
<glyph unicode="&#x20ac;" d="M43 596l14 49h127q10 33 22.5 63.5t24.5 61.5h-147l14 49h156q55 117 126 217.5t149.5 174t161.5 115.5t165 42q70 0 126 -31.5t97 -60.5l-69 -268h-21q0 70 -8 129t-25.5 102t-45 67.5t-68.5 24.5q-66 0 -126.5 -42t-115.5 -112.5t-104.5 -163.5t-87.5 -194h317l-14 -49 h-324q-10 -33 -20.5 -63.5t-20.5 -61.5h338l-14 -49h-338q-29 -104 -43.5 -195.5t-14.5 -160.5q0 -115 43 -161t107 -46q47 0 96 32.5t93 78.5t81 95.5t60 84.5l26 -23q-37 -49 -81 -108.5t-97 -109.5t-117.5 -85t-146.5 -35q-66 0 -109 24.5t-69.5 62.5t-37.5 84t-11 87 q0 94 14 188.5t43 186.5h-125z" />
<glyph unicode="&#x2122;" horiz-adv-x="2027" d="M80 1151v180h696v-180h-37q-14 57 -44.5 98t-94.5 41h-106v-631q0 -39 1 -60t10 -31.5t30.5 -14.5t60.5 -8v-41h-336v41q39 4 60.5 8t30.5 14.5t10 32t1 59.5v631h-106q-66 0 -95.5 -41t-43.5 -98h-37zM868 1290v41h236l321 -645l336 645h201v-41q-66 -4 -90.5 -33.5 t-24.5 -82.5v-515q0 -39 1 -60t9.5 -31.5t30 -14.5t60.5 -8v-41h-334v41q41 4 61.5 8t29.5 14.5t10 32t1 59.5v482h-4l-317 -643h-19l-311 637h-4v-459q0 -66 20.5 -94.5t85.5 -36.5v-41h-266v41q68 8 87.5 36.5t19.5 94.5v512q-16 47 -56.5 74.5t-83.5 27.5z" />
<glyph unicode="&#x25fc;" horiz-adv-x="798" d="M0 0v799h799v-799h-799z" />
<glyph unicode="&#xfb01;" horiz-adv-x="1062" d="M-332 -348q0 29 25.5 51.5t54.5 22.5q37 0 49.5 -13.5t17.5 -30t10 -29.5t25 -13q31 0 56.5 24.5t47 62t39 86t31 94.5t23.5 86l16 64q47 166 84 330t86 334h-176l9 49h184q33 117 86 238.5t132 222t186.5 164t248.5 63.5q37 0 76 -8t71.5 -26.5t53 -48t20.5 -72.5 q0 -47 -29.5 -70t-72.5 -23q-39 0 -62.5 29t-23.5 64q0 14 2 28.5t12 24.5q-29 35 -68.5 46t-82.5 11q-63 0 -113.5 -35t-90.5 -92t-69.5 -128t-52 -142.5t-39 -136t-31.5 -109.5h510q-10 -33 -29.5 -85t-43 -112.5t-47 -125t-44 -121t-32.5 -101.5t-12 -67 q0 -39 23.5 -57.5t59.5 -18.5q35 0 73 22.5t70 50t53.5 50t23.5 22.5q10 0 10 -12q0 -6 -30 -41t-76 -76t-104 -73.5t-116 -32.5q-25 0 -52.5 5t-49 19.5t-35.5 39t-14 61.5q0 10 20.5 68.5t51 144.5t67.5 189.5t68 201.5h-363q-18 -72 -46 -170t-62.5 -206.5t-76.5 -221.5 t-89.5 -211t-98.5 -175t-106 -116q-84 -59 -135 -59q-47 0 -75 20.5t-28 69.5z" />
<glyph unicode="&#xfb02;" horiz-adv-x="1062" d="M-365 -354q0 31 19.5 55.5t52.5 24.5q41 0 58.5 -18.5t27.5 -59.5q12 -4 21 -4q35 0 65.5 30.5t55 79.5t45 109.5t37 121t28.5 115t23 88.5q37 135 67.5 268.5t71.5 264.5h-178l10 49h184q23 111 76 232.5t135 223t189.5 167t238.5 65.5q31 0 60.5 -5t58.5 -5q37 0 76 10 t73 15q0 -2 -19 -58.5t-51 -145.5t-71 -204t-80 -234.5t-81 -236.5t-70.5 -210t-49 -155.5t-18.5 -72.5q0 -37 30 -49.5t58 -12.5q49 0 89 19.5t69 42t47 42t21 19.5q14 0 14 -12q0 -8 -36 -43t-88 -73t-112.5 -67.5t-109.5 -29.5q-72 0 -104.5 40t-32.5 85q0 10 18 70.5 t50 155.5t73 217t85 254t88 266t83 255q-43 37 -80 57.5t-96 20.5q-61 0 -109.5 -35t-86.5 -91t-66.5 -128t-51 -142.5t-40 -136t-31.5 -110.5h198l-16 -49h-201q-45 -156 -91 -310.5t-100.5 -296t-123 -265t-162.5 -218.5q-27 -29 -65.5 -49t-77.5 -20q-35 0 -66 21.5 t-31 62.5z" />
</font>
</defs>
</svg>
